<?xml version="1.0" encoding="UTF-8"?>
<svg id="Capa_1" xmlns="http://www.w3.org/2000/svg" version="1.1" viewBox="0 0 512 512">
  <!-- Generator: Adobe Illustrator 29.0.0, SVG Export Plug-In . SVG Version: 2.1.0 Build 186)  -->
  <defs>
    <style>
      .st0 {
        fill: #fff;
      }
    </style>
  </defs>
  <path class="st0" d="M463.1,29.8C427.1-1,382.4,0,356.1,14c-23.5,12.5-56.9,58.4-65.7,67-48.3,47.6-113.6,27.8-163.3,46.1-20.7,7.6-39.3,17.3-55.3,28.8-3.4,2.4-4.1,7.1-1.7,10.5s7.1,4.1,10.5,1.7c14.9-10.7,32.3-19.7,51.7-26.9,46.4-17.1,115.8,2.5,168.6-49.5,9.1-9,42.1-53.8,62.2-64.5,22-11.7,59.5-12.3,90.2,13.9,88.4,75.6,28,277.2-51.5,372.8-82.8,99.5-254.5,99.8-324.8,26.5C28.6,389.8,1.2,314.2,22,247.3c6.8-22,18.6-41.8,34.8-58.7,2.9-3,2.8-7.7-.2-10.6-3-2.9-7.7-2.8-10.6.2C-27.1,254.4-7.7,373.6,66.2,450.8c76.3,79.7,258.5,79.3,347.1-27.2,83-99.8,146.9-310.7,49.8-393.8h0Z"/>
  <path class="st0" d="M122.4,162.1c-18.9,8-45.8,26-63.2,48.2-6,7.7-14.2,18.1-9.7,27.2,3.7,7.6,13.2,8.4,20,8.3,13.7-.1,27.3,3,41.7,6.3,18.2,4.2,59,14.1,66.6-2.8,4-8.9-3.7-17.6-7-21.4-7.5-10.5-19.8-18.8-21.7-47.7-1.2-17.7-13.3-23.8-26.7-18.1h0ZM159.6,237.8c2.2,2.5,3.3,4.1,3.8,5.1-11.7,3.4-38.9-3.1-48.8-5.4-42.5-9.8-43-5.5-50.9-7.1.8-1.8,2.8-5.1,7.4-10.9,15.6-20,40.6-36.6,57.2-43.6,2.7-1.1,4-.9,4.2-.7.3.2,1.4,1.8,1.7,6.1,1.5,22.7,7.7,36.5,25.4,56.6h0Z"/>
  <path class="st0" d="M275.6,454.9c-32.6,7.8-66.6,8.4-97,2.7-4.1-.8-8,1.9-8.8,6s1.9,8,6,8.8c36,6.8,69.4,4.8,104.5-3.1,6.2-1.4,20.8-4.7,23.8-16.4,2.2-8.6-2.7-18.2-15.1-29.3-21.2-18.9-21-28.6-31.6-65.2-6.5-22.3-18.4-66.2-48-81.6-26.1-13.5-54.7,2.1-135.7-12.9-16.4-3.1-31.8-4.3-40,10.3-7.7,13.6-5.7,37.9,6,74.1,9.6,29.6,26.5,57.6,48.8,81,13.5,14.1,32.4,25.9,54.5,34,3.9,1.4,8.2-.6,9.6-4.5,1.4-3.9-.6-8.2-4.5-9.6-20-7.3-36.9-17.8-48.8-30.3-20.8-21.7-36.5-47.7-45.4-75.2-13.4-41.4-10.2-56.7-7.2-62.2,4-7.1,14.7-4.7,24.2-2.9,98.1,18.3,118.9-6.5,143.9,21.7,14.9,16.8,21.6,39.9,28.1,62.3,4.7,16.1,3.8,12.2,6.5,22.4,4.2,15.8,8.2,30.7,29.5,49.7,11.4,10.2,10.5,14.3,10.5,14.3-.8,3-11.9,5.3-14,5.8Z"/>
  <path class="st0" d="M461.7,117.1c.9,4,4.9,6.6,8.9,5.7,4-.9,6.6-4.9,5.7-8.9-16.1-73.1-74.4-89.2-105.7-72.5-16.4,8.7-49,52.4-58.5,61.7-19.6,19.3-44.5,32.3-74.1,38.7-18.8,4.1-66.1-2.5-71,30.5-5.3,35.8,48.6,81.6,69.6,108.9,41.3,53.6,29.5,90.1,67.2,136.4,6.3,7.7,18.7,16.2,30.1,17.3,26.8,2.6,39.6-12,55.5-31.1,53.8-64.7,94.5-171.6,91.1-255.9-.2-4.1-3.6-7.4-7.8-7.2-4.1.2-7.4,3.7-7.2,7.8,3.3,80.1-35.7,183.3-87.6,245.7-14.4,17.3-23,27.7-42.6,25.8-6.1-.6-15.2-6-19.9-11.8-35.4-43.5-23.5-79.7-67-136.1-20.5-26.6-47-47.8-61.4-76.3-22.1-43.7,27.7-33.7,54-39.4,32.5-7,59.9-21.4,81.5-42.6,9.2-9.1,42.4-52.5,55-59.2,1.3-.7,8.1-4,19-4s22.8,2.5,36.5,14.1c13.9,11.8,23.4,29.5,28.5,52.4h0Z"/>
  <path class="st0" d="M340.3,201.8c0,12.7,10.3,23,23,23s23-10.3,23-23-10.3-23-23-23-23,10.3-23,23ZM371.3,201.8c0,4.4-3.6,8-8,8s-8-3.6-8-8,3.6-8,8-8,8,3.6,8,8Z"/>
  <path class="st0" d="M309.2,201.8c0,29.8,24.3,54.1,54.1,54.1s54.1-24.3,54.1-54.1-24.3-54.1-54.1-54.1-54.1,24.3-54.1,54.1ZM402.4,201.8c0,21.5-17.5,39.1-39.1,39.1s-39.1-17.5-39.1-39.1,17.5-39.1,39.1-39.1,39.1,17.5,39.1,39.1Z"/>
</svg>