<?xml version="1.0" encoding="UTF-8"?>
<svg id="Layer_1" xmlns="http://www.w3.org/2000/svg" version="1.1" viewBox="0 0 512 512">
  <!-- Generator: Adobe Illustrator 29.0.0, SVG Export Plug-In . SVG Version: 2.1.0 Build 186)  -->
  <defs>
    <style>
      .st0 {
        fill: #fff;
      }
    </style>
  </defs>
  <g id="Layer_3">
    <path class="st0" d="M451.8,231.2l-27.5-4.6c-7.1-1.2-13.3-5.5-16.9-11.8l-10.4-18.2c-30-52.3-85.6-84.6-145.9-84.7h-22.3c-60.3,0-115.9,32.4-145.9,84.6l-11.2,19.5c-3.3,5.7-8.7,9.8-15,11.4l-26.5,6.6c-13.4,3.4-24.1,13.4-28.3,26.6,0,.2,0,.5-.2.7-1.2,3.7-1.8,7.6-1.8,11.5v55c0,22.1,17.9,40,40,40h29.5c13.2,27.9,46.5,39.8,74.4,26.6,11.7-5.5,21.1-14.9,26.6-26.6h171c13.2,27.9,46.5,39.8,74.4,26.6,11.7-5.5,21.1-14.9,26.6-26.6h29.5c22.1,0,40-17.9,40-40v-25.8c0-35.2-25.4-65.3-60.2-71ZM487.2,272c3.2,4.9,5.5,10.3,7,16h-6.2c-6.3,0-12.4-2.5-16.9-7-2.5-2.6-4.5-5.6-5.7-9h21.8ZM16.1,272h13.7l-4,16h-9.8v-15c0-.3,0-.7,0-1ZM120,384c-22.1,0-40-17.9-40-40s17.9-40,40-40,40,17.9,40,40c0,22.1-17.9,40-40,40ZM392,384c-22.1,0-40-17.9-40-40s17.9-40,40-40,40,17.9,40,40c0,22.1-17.9,40-40,40ZM472,352h-24.6c4.7-30.6-16.3-59.1-46.9-63.8-30.6-4.7-59.1,16.3-63.8,46.9-.9,5.6-.9,11.3,0,16.9h-161.3c4.7-30.6-16.3-59.1-46.9-63.8-30.6-4.7-59.1,16.3-63.8,46.9-.9,5.6-.9,11.3,0,16.9h-24.6c-13.3,0-24-10.7-24-24v-24h16c3.7,0,6.9-2.5,7.8-6.1l8-32c1.1-4.3-1.5-8.6-5.8-9.7-.6-.2-1.3-.2-1.9-.2h-16.9c3-3.1,6.9-5.2,11.1-6.3l26.5-6.6c10.6-2.7,19.6-9.5,25-19l11.2-19.5c27.1-47.3,77.4-76.5,132-76.6h22.3c54.5,0,104.9,29.3,132,76.6l10.4,18.2c5.9,10.4,16.3,17.7,28.1,19.6l27.5,4.6c8.1,1.3,15.7,4.4,22.5,9h-15.7c-4.4,0-8,3.6-8,8,0,22.1,17.9,40,39.9,40,0,0,0,0,0,0h8v24c0,13.3-10.7,24-24,24Z"/>
    <path class="st0" d="M272,240h-16c-4.4,0-8,3.6-8,8s3.6,8,8,8h16c4.4,0,8-3.6,8-8s-3.6-8-8-8Z"/>
    <path class="st0" d="M120,240h-16c-4.4,0-8,3.6-8,8s3.6,8,8,8h16c4.4,0,8-3.6,8-8s-3.6-8-8-8Z"/>
    <path class="st0" d="M392,320c-13.3,0-24,10.7-24,24s10.7,24,24,24,24-10.7,24-24-10.7-24-24-24ZM392,352c-4.4,0-8-3.6-8-8s3.6-8,8-8,8,3.6,8,8-3.6,8-8,8Z"/>
    <path class="st0" d="M120,320c-13.3,0-24,10.7-24,24s10.7,24,24,24,24-10.7,24-24-10.7-24-24-24ZM120,352c-4.4,0-8-3.6-8-8s3.6-8,8-8,8,3.6,8,8-3.6,8-8,8Z"/>
    <path class="st0" d="M224,136h-4.2c-49.1-.1-93.3,29.8-111.4,75.4l-3.8,9.6c-1.6,4.1.4,8.8,4.5,10.4.9.4,2,.6,3,.6h112c4.4,0,8-3.6,8-8v-80c0-4.4-3.6-8-8-8ZM216,216h-92.2c15.5-37.5,51.6-62.5,92.2-63.9v63.9Z"/>
    <path class="st0" d="M371.6,211.4c-6.6-16.7-17-31.6-30.2-43.7-3.3-3-8.3-2.8-11.3.5-3,3.3-2.8,8.3.5,11.3h0c11.1,10.2,19.8,22.6,25.6,36.5h-92.2v-63.9c15.5.6,30.6,4.6,44.3,11.7,3.9,2,8.8.5,10.8-3.4,2-3.9.5-8.8-3.4-10.8h0c-17.1-8.9-36.2-13.6-55.5-13.6h-4.2c-4.4,0-8,3.6-8,8v80c0,4.4,3.6,8,8,8h112c4.4,0,8-3.6,8-8,0-1-.2-2-.6-3l-3.8-9.6Z"/>
  </g>
</svg>