<?xml version="1.0" encoding="UTF-8"?><svg id="Layer_1" xmlns="http://www.w3.org/2000/svg" viewBox="0 0 31.72 30.5"><defs><style>.cls-1{fill:none;stroke:#78c679;stroke-linecap:round;stroke-miterlimit:10;stroke-width:1.22px;}</style></defs><path class="cls-1" d="M.61,16.41c10.09-3.09,20.41-3.11,30.5,0"/><path d="M15.89,12.87c5.1,0,10.21.76,15.22,2.27-.06-8.37-6.86-15.14-15.25-15.14S.67,6.77.61,15.14c5.03-1.5,10.16-2.27,15.25-2.27.01,0,.02,0,.03,0Z"/><path d="M15.89,15.31s-.02,0-.03,0c-4.97,0-9.98.77-14.89,2.27-.06.02-.12.03-.17.04,1.14,7.3,7.45,12.88,15.07,12.88s13.93-5.58,15.07-12.88c-.06,0-.12-.02-.18-.04-4.88-1.51-9.88-2.27-14.86-2.27Z"/><path class="cls-1" d="M.61,16.41c10.09-3.09,20.41-3.11,30.5,0"/></svg>