<?xml version="1.0" encoding="UTF-8"?><svg id="Layer_1" xmlns="http://www.w3.org/2000/svg" viewBox="0 0 547.36 212.9"><defs><style>.cls-1{fill:#bcbec0;}.cls-2{fill:#002a18;}.cls-3{fill:#41ab5d;}.cls-4{fill:#238443;}.cls-5{fill:none;stroke:#bcbec0;stroke-linecap:round;stroke-miterlimit:10;stroke-width:5px;}.cls-6{fill:#004529;}.cls-7{fill:#006837;}.cls-8{fill:#78c679;}</style></defs><path class="cls-1" d="M8.94,89.45H2.65v3.33h7.17v2.33H0v-12.96h9.5v2.29H2.65v2.75h6.29v2.25Z"/><path class="cls-1" d="M11.78,82.15h2.5v12.96h-2.5v-12.96Z"/><path class="cls-1" d="M24.93,92.29c-.06.57-.36,1.15-.89,1.73-.82.93-1.97,1.4-3.45,1.4-1.22,0-2.29-.39-3.23-1.18s-1.4-2.06-1.4-3.83c0-1.66.42-2.93,1.26-3.81s1.93-1.33,3.27-1.33c.8,0,1.51.15,2.15.45s1.17.77,1.58,1.42c.38.57.62,1.23.73,1.98.06.44.09,1.07.08,1.9h-6.56c.04.96.34,1.63.91,2.02.35.24.76.36,1.25.36.52,0,.93-.15,1.26-.44.18-.16.33-.38.47-.66h2.56ZM22.45,89.36c-.04-.66-.24-1.16-.6-1.51s-.81-.51-1.34-.51c-.58,0-1.03.18-1.35.54s-.52.86-.6,1.48h3.89Z"/><path class="cls-1" d="M35.02,88.96h-2.57c-.05-.36-.17-.68-.36-.97-.28-.39-.72-.58-1.31-.58-.84,0-1.42.42-1.73,1.26-.16.45-.25,1.04-.25,1.78s.08,1.27.25,1.7c.3.8.86,1.2,1.69,1.2.59,0,1-.16,1.25-.47s.4-.73.45-1.23h2.56c-.06.76-.33,1.48-.83,2.16-.79,1.1-1.95,1.64-3.49,1.64s-2.67-.46-3.4-1.37-1.09-2.1-1.09-3.56c0-1.65.4-2.93,1.2-3.84s1.91-1.37,3.32-1.37c1.2,0,2.18.27,2.95.81s1.22,1.49,1.36,2.86Z"/><path class="cls-1" d="M41.13,93.32v1.87l-1.19.04c-1.18.04-1.99-.16-2.43-.62-.28-.29-.42-.73-.42-1.33v-5.9h-1.34v-1.78h1.34v-2.67h2.48v2.67h1.56v1.78h-1.56v5.06c0,.39.05.64.15.73s.4.15.91.15c.08,0,.16,0,.24,0s.17,0,.25-.01Z"/><path class="cls-1" d="M47.56,87.84c-1.01,0-1.68.33-2.03.98-.19.37-.29.94-.29,1.71v4.58h-2.52v-9.58h2.39v1.67c.39-.64.72-1.08,1.01-1.31.47-.39,1.08-.59,1.83-.59.05,0,.09,0,.12,0s.1,0,.22.01v2.57c-.16-.02-.3-.03-.42-.04s-.22,0-.3,0Z"/><path class="cls-1" d="M57.74,86.74c.81,1.01,1.21,2.21,1.21,3.59s-.4,2.61-1.21,3.61-2.04,1.5-3.68,1.5-2.87-.5-3.68-1.5-1.21-2.2-1.21-3.61.4-2.58,1.21-3.59,2.04-1.52,3.68-1.52,2.87.51,3.68,1.52ZM54.04,87.34c-.73,0-1.3.26-1.69.78s-.59,1.26-.59,2.22.2,1.7.59,2.22.96.78,1.69.78,1.29-.26,1.69-.78.59-1.26.59-2.22-.2-1.7-.59-2.22-.96-.78-1.69-.78Z"/><path class="cls-1" d="M66.12,88.16c-.21-.46-.62-.69-1.24-.69-.71,0-1.2.23-1.44.69-.13.26-.2.66-.2,1.18v5.77h-2.54v-9.56h2.43v1.4c.31-.5.6-.85.88-1.06.49-.38,1.12-.56,1.89-.56.73,0,1.32.16,1.78.48.36.3.64.68.83,1.15.33-.56.74-.98,1.22-1.24.52-.26,1.09-.4,1.72-.4.42,0,.84.08,1.25.25s.78.45,1.12.86c.27.33.45.74.54,1.23.06.32.09.79.09,1.42l-.02,6.04h-2.57v-6.1c0-.36-.06-.66-.18-.9-.22-.45-.63-.67-1.23-.67-.69,0-1.17.29-1.43.86-.13.3-.2.67-.2,1.1v5.7h-2.52v-5.7c0-.57-.06-.98-.18-1.24Z"/><path class="cls-1" d="M77.11,86.56c.66-.84,1.8-1.27,3.41-1.27,1.05,0,1.98.21,2.79.62s1.22,1.2,1.22,2.36v4.39c0,.3,0,.67.02,1.11.02.33.07.55.15.67s.21.21.37.29v.37h-2.72c-.08-.19-.13-.38-.16-.54s-.05-.36-.07-.58c-.35.38-.74.69-1.2.96-.54.31-1.15.47-1.83.47-.87,0-1.58-.25-2.15-.74s-.85-1.2-.85-2.1c0-1.18.45-2.03,1.36-2.56.5-.29,1.23-.49,2.2-.62l.85-.11c.46-.06.79-.13.99-.22.36-.15.54-.39.54-.71,0-.39-.14-.66-.41-.81s-.67-.22-1.2-.22c-.59,0-1.01.15-1.26.44-.18.22-.29.51-.35.88h-2.42c.05-.84.29-1.53.7-2.07ZM78.97,93.3c.23.19.52.29.86.29.54,0,1.04-.16,1.49-.47s.69-.89.71-1.73v-.93c-.16.1-.32.18-.48.24s-.38.12-.66.17l-.56.11c-.53.09-.91.21-1.13.34-.39.23-.58.58-.58,1.06,0,.43.12.74.36.92Z"/><path class="cls-1" d="M89.46,96.78c.27.23.72.34,1.36.34.9,0,1.51-.3,1.81-.91.2-.39.3-1.04.3-1.95v-.62c-.24.41-.5.72-.77.92-.5.38-1.15.57-1.94.57-1.23,0-2.21-.43-2.95-1.3s-1.1-2.03-1.1-3.51.35-2.62,1.06-3.59,1.71-1.45,3.01-1.45c.48,0,.9.07,1.26.22.61.25,1.1.71,1.48,1.39v-1.38h2.43v9.09c0,1.24-.21,2.17-.62,2.79-.71,1.08-2.09,1.62-4.11,1.62-1.22,0-2.22-.24-3-.72s-1.2-1.2-1.28-2.15h2.72c.07.29.18.5.34.63ZM89.04,91.84c.34.81.95,1.21,1.83,1.21.59,0,1.08-.22,1.49-.66s.61-1.15.61-2.11c0-.91-.19-1.6-.58-2.07s-.9-.71-1.54-.71c-.88,0-1.49.41-1.82,1.24-.18.44-.26.98-.26,1.63,0,.56.09,1.05.28,1.49Z"/><path class="cls-1" d="M102.26,87.38c-.85,0-1.43.36-1.75,1.08-.16.38-.25.87-.25,1.46v5.19h-2.5v-9.56h2.42v1.4c.32-.49.63-.85.91-1.06.52-.39,1.17-.58,1.96-.58.99,0,1.8.26,2.43.78s.94,1.38.94,2.58v6.45h-2.57v-5.83c0-.5-.07-.89-.2-1.16-.25-.49-.71-.74-1.41-.74Z"/><path class="cls-1" d="M116.95,92.29c-.06.57-.36,1.15-.89,1.73-.82.93-1.97,1.4-3.45,1.4-1.22,0-2.29-.39-3.23-1.18s-1.4-2.06-1.4-3.83c0-1.66.42-2.93,1.26-3.81s1.93-1.33,3.27-1.33c.8,0,1.51.15,2.15.45s1.17.77,1.58,1.42c.38.57.62,1.23.73,1.98.06.44.09,1.07.08,1.9h-6.56c.04.96.34,1.63.91,2.02.35.24.76.36,1.25.36.52,0,.93-.15,1.26-.44.18-.16.33-.38.47-.66h2.56ZM114.47,89.36c-.04-.66-.24-1.16-.6-1.51s-.81-.51-1.34-.51c-.58,0-1.03.18-1.35.54s-.52.86-.6,1.48h3.89Z"/><path class="cls-1" d="M123.14,93.32v1.87l-1.19.04c-1.18.04-1.99-.16-2.43-.62-.28-.29-.42-.73-.42-1.33v-5.9h-1.34v-1.78h1.34v-2.67h2.48v2.67h1.56v1.78h-1.56v5.06c0,.39.05.64.15.73s.4.15.91.15c.08,0,.16,0,.24,0s.17,0,.25-.01Z"/><path class="cls-1" d="M127.33,82.07v2.31h-2.54v-2.31h2.54ZM127.33,85.53v9.58h-2.54v-9.58h2.54Z"/><path class="cls-1" d="M138.04,88.96h-2.57c-.05-.36-.17-.68-.36-.97-.28-.39-.72-.58-1.31-.58-.84,0-1.42.42-1.73,1.26-.16.45-.25,1.04-.25,1.78s.08,1.27.25,1.7c.3.8.86,1.2,1.69,1.2.59,0,1-.16,1.25-.47s.4-.73.45-1.23h2.56c-.06.76-.33,1.48-.83,2.16-.79,1.1-1.95,1.64-3.49,1.64s-2.67-.46-3.4-1.37-1.09-2.1-1.09-3.56c0-1.65.4-2.93,1.2-3.84s1.91-1.37,3.32-1.37c1.2,0,2.18.27,2.95.81s1.22,1.49,1.36,2.86Z"/><path class="cls-1" d="M48.45,111.05h-6.29v3.33h7.17v2.33h-9.82v-12.96h9.5v2.29h-6.86v2.75h6.29v2.25Z"/><path class="cls-1" d="M55.74,108.98c-.85,0-1.43.36-1.75,1.08-.16.38-.25.87-.25,1.46v5.19h-2.5v-9.56h2.42v1.4c.32-.49.63-.85.91-1.06.52-.39,1.17-.58,1.96-.58.99,0,1.8.26,2.43.78s.94,1.38.94,2.58v6.45h-2.57v-5.83c0-.5-.07-.89-.2-1.16-.25-.49-.71-.74-1.41-.74Z"/><path class="cls-1" d="M70.43,113.89c-.06.57-.36,1.15-.89,1.73-.82.93-1.97,1.4-3.45,1.4-1.22,0-2.29-.39-3.23-1.18s-1.4-2.06-1.4-3.83c0-1.66.42-2.93,1.26-3.81s1.93-1.33,3.27-1.33c.8,0,1.51.15,2.15.45s1.17.77,1.58,1.42c.38.57.62,1.23.73,1.98.06.44.09,1.07.08,1.9h-6.56c.04.96.34,1.63.91,2.02.35.24.76.36,1.25.36.52,0,.93-.15,1.26-.44.18-.16.33-.38.47-.66h2.56ZM67.95,110.96c-.04-.66-.24-1.17-.6-1.51s-.81-.51-1.34-.51c-.58,0-1.03.18-1.35.54s-.52.86-.6,1.48h3.89Z"/><path class="cls-1" d="M77.06,109.44c-1.01,0-1.68.33-2.03.98-.19.37-.29.94-.29,1.71v4.58h-2.52v-9.58h2.39v1.67c.39-.64.72-1.08,1.01-1.31.47-.39,1.08-.59,1.83-.59.05,0,.09,0,.12,0s.1,0,.22.01v2.57c-.16-.02-.3-.03-.42-.04s-.22,0-.3,0Z"/><path class="cls-1" d="M81.95,118.39c.27.23.72.34,1.36.34.9,0,1.51-.3,1.81-.91.2-.39.3-1.04.3-1.95v-.62c-.24.41-.5.72-.77.92-.5.38-1.15.57-1.94.57-1.23,0-2.21-.43-2.95-1.3s-1.1-2.03-1.1-3.51.35-2.62,1.06-3.59,1.71-1.45,3.01-1.45c.48,0,.9.07,1.26.22.61.25,1.1.71,1.48,1.39v-1.38h2.43v9.09c0,1.24-.21,2.17-.62,2.79-.71,1.08-2.09,1.62-4.11,1.62-1.22,0-2.22-.24-3-.72s-1.2-1.2-1.28-2.15h2.72c.07.29.18.5.34.63ZM81.53,113.44c.34.81.95,1.21,1.83,1.21.59,0,1.08-.22,1.49-.66s.61-1.15.61-2.11c0-.91-.19-1.6-.58-2.07s-.9-.71-1.54-.71c-.88,0-1.49.41-1.82,1.24-.18.44-.26.98-.26,1.63,0,.56.09,1.05.28,1.49Z"/><path class="cls-1" d="M94.14,114.19l1.98-7.07h2.66l-3.29,9.42c-.63,1.82-1.13,2.94-1.5,3.38s-1.11.66-2.21.66c-.22,0-.4,0-.54,0s-.34-.01-.61-.03v-2l.32.02c.25.01.48,0,.7-.03s.41-.1.56-.2c.15-.1.28-.31.41-.62s.18-.51.15-.58l-3.52-10h2.79l2.09,7.07Z"/><line class="cls-5" x1="32.79" y1="130.63" x2="105.25" y2="130.63"/><polygon class="cls-1" points="103.06 138.11 116.02 130.63 103.06 123.15 103.06 138.11"/><path class="cls-1" d="M490.84,42.83v-5.78h-5.06v5.78h-2.68v-12.96h2.68v4.94h5.06v-4.94h2.69v12.96h-2.69Z"/><path class="cls-1" d="M504.11,40.02c-.06.57-.36,1.15-.89,1.73-.82.93-1.97,1.4-3.45,1.4-1.22,0-2.29-.39-3.23-1.18s-1.4-2.06-1.4-3.83c0-1.66.42-2.93,1.26-3.81s1.93-1.33,3.27-1.33c.8,0,1.51.15,2.15.45s1.17.77,1.58,1.42c.38.57.62,1.23.73,1.98.06.44.09,1.07.08,1.9h-6.56c.04.96.34,1.63.91,2.02.35.24.76.36,1.25.36.52,0,.93-.15,1.26-.44.18-.16.33-.38.47-.66h2.56ZM501.63,37.08c-.04-.66-.24-1.16-.6-1.51s-.81-.51-1.34-.51c-.58,0-1.03.18-1.35.54s-.52.86-.6,1.48h3.89Z"/><path class="cls-1" d="M506.28,34.29c.66-.84,1.8-1.27,3.41-1.27,1.05,0,1.98.21,2.79.62s1.22,1.2,1.22,2.36v4.39c0,.3,0,.67.02,1.11.02.33.07.55.15.67s.21.21.37.29v.37h-2.72c-.08-.19-.13-.38-.16-.54s-.05-.36-.07-.58c-.35.38-.74.69-1.2.96-.54.31-1.15.47-1.83.47-.87,0-1.58-.25-2.15-.74s-.85-1.2-.85-2.1c0-1.18.45-2.03,1.36-2.56.5-.29,1.23-.49,2.2-.62l.85-.11c.46-.06.79-.13.99-.22.36-.15.54-.39.54-.71,0-.39-.14-.66-.41-.81s-.67-.22-1.2-.22c-.59,0-1.01.15-1.26.44-.18.22-.29.51-.35.88h-2.42c.05-.84.29-1.53.7-2.07ZM508.15,41.02c.23.19.52.29.86.29.54,0,1.04-.16,1.49-.47s.69-.89.71-1.73v-.93c-.16.1-.32.18-.48.24s-.38.12-.66.17l-.56.11c-.53.09-.91.21-1.13.34-.39.23-.58.58-.58,1.06,0,.43.12.74.36.92Z"/><path class="cls-1" d="M520.32,41.05v1.87l-1.19.04c-1.18.04-1.99-.16-2.43-.62-.28-.29-.42-.73-.42-1.33v-5.9h-1.34v-1.78h1.34v-2.67h2.48v2.67h1.56v1.78h-1.56v5.06c0,.39.05.64.15.73s.4.15.91.15c.08,0,.16,0,.24,0s.17,0,.25-.01Z"/><path class="cls-1" d="M481.13,58.77h-6.29v3.33h7.17v2.33h-9.82v-12.96h9.5v2.29h-6.86v2.75h6.29v2.25Z"/><path class="cls-1" d="M488.42,56.71c-.85,0-1.43.36-1.75,1.08-.16.38-.25.87-.25,1.46v5.19h-2.5v-9.56h2.42v1.4c.32-.49.63-.85.91-1.06.52-.39,1.17-.58,1.96-.58.99,0,1.8.26,2.43.78s.94,1.38.94,2.58v6.45h-2.57v-5.83c0-.5-.07-.89-.2-1.16-.25-.49-.71-.74-1.41-.74Z"/><path class="cls-1" d="M503.11,61.62c-.06.57-.36,1.15-.89,1.73-.82.93-1.97,1.4-3.45,1.4-1.22,0-2.29-.39-3.23-1.18s-1.4-2.06-1.4-3.83c0-1.66.42-2.93,1.26-3.81s1.93-1.33,3.27-1.33c.8,0,1.51.15,2.15.45s1.17.77,1.58,1.42c.38.57.62,1.23.73,1.98.06.44.09,1.07.08,1.9h-6.56c.04.96.34,1.63.91,2.02.35.24.76.36,1.25.36.52,0,.93-.15,1.26-.44.18-.16.33-.38.47-.66h2.56ZM500.63,58.68c-.04-.66-.24-1.16-.6-1.51s-.81-.51-1.34-.51c-.58,0-1.03.18-1.35.54s-.52.86-.6,1.48h3.89Z"/><path class="cls-1" d="M509.74,57.16c-1.01,0-1.68.33-2.03.98-.19.37-.29.94-.29,1.71v4.58h-2.52v-9.58h2.39v1.67c.39-.64.72-1.08,1.01-1.31.47-.39,1.08-.59,1.83-.59.05,0,.09,0,.12,0s.1,0,.21.01v2.57c-.16-.02-.3-.03-.42-.04s-.22,0-.3,0Z"/><path class="cls-1" d="M514.63,66.11c.27.23.72.34,1.36.34.9,0,1.51-.3,1.81-.91.2-.39.3-1.04.3-1.95v-.62c-.24.41-.5.72-.77.92-.5.38-1.15.57-1.94.57-1.23,0-2.21-.43-2.95-1.3s-1.1-2.03-1.1-3.51.35-2.62,1.06-3.59,1.71-1.45,3.01-1.45c.48,0,.9.07,1.26.22.61.25,1.1.71,1.48,1.39v-1.38h2.43v9.09c0,1.24-.21,2.17-.62,2.79-.71,1.08-2.09,1.62-4.11,1.62-1.22,0-2.22-.24-3-.72s-1.2-1.2-1.28-2.15h2.72c.07.29.18.5.34.63ZM514.21,61.16c.34.81.95,1.21,1.83,1.21.59,0,1.08-.22,1.49-.66s.61-1.15.61-2.11c0-.91-.19-1.6-.58-2.07s-.9-.71-1.54-.71c-.88,0-1.49.41-1.82,1.24-.18.44-.26.98-.26,1.63,0,.56.09,1.05.28,1.49Z"/><path class="cls-1" d="M526.81,61.92l1.98-7.07h2.66l-3.29,9.42c-.63,1.82-1.13,2.94-1.5,3.38s-1.11.65-2.21.65c-.22,0-.4,0-.54,0s-.34-.01-.61-.03v-2l.32.02c.25.01.48,0,.7-.03s.41-.1.56-.2c.15-.1.28-.31.41-.62s.18-.51.15-.58l-3.52-10h2.79l2.09,7.07Z"/><line class="cls-5" x1="462.78" y1="78.35" x2="535.24" y2="78.35"/><polygon class="cls-1" points="533.06 85.83 546.01 78.35 533.06 70.87 533.06 85.83"/><path class="cls-1" d="M450.68,134.35h2.69v12.96h-2.69v-12.96Z"/><path class="cls-1" d="M460.19,139.58c-.85,0-1.43.36-1.75,1.08-.16.38-.25.87-.25,1.46v5.19h-2.5v-9.56h2.42v1.4c.32-.49.63-.85.91-1.06.52-.39,1.17-.58,1.96-.58.99,0,1.8.26,2.43.78s.94,1.38.94,2.58v6.45h-2.57v-5.83c0-.5-.07-.89-.2-1.16-.25-.49-.71-.74-1.41-.74Z"/><path class="cls-1" d="M471.17,134.27v2.04c-.14-.02-.38-.03-.71-.04s-.56.06-.69.22-.19.33-.19.51v.81h1.64v1.77h-1.64v7.73h-2.5v-7.73h-1.4v-1.77h1.37v-.62c0-1.03.17-1.73.52-2.12.36-.57,1.24-.86,2.63-.86.16,0,.3,0,.43.01s.3.02.53.04Z"/><path class="cls-1" d="M480.66,138.94c.81,1.01,1.21,2.21,1.21,3.59s-.4,2.61-1.21,3.61-2.04,1.5-3.68,1.5-2.87-.5-3.68-1.5-1.21-2.2-1.21-3.61.4-2.58,1.21-3.59,2.04-1.52,3.68-1.52,2.87.51,3.68,1.52ZM476.97,139.53c-.73,0-1.3.26-1.69.78s-.59,1.26-.59,2.22.2,1.7.59,2.22.96.78,1.69.78,1.29-.26,1.69-.78.59-1.26.59-2.22-.2-1.7-.59-2.22-.96-.78-1.69-.78Z"/><path class="cls-1" d="M488.49,140.03c-1.01,0-1.68.33-2.03.98-.19.37-.29.94-.29,1.71v4.58h-2.52v-9.58h2.39v1.67c.39-.64.72-1.08,1.01-1.31.47-.39,1.08-.59,1.83-.59.05,0,.09,0,.12,0s.1,0,.21.01v2.57c-.16-.02-.3-.03-.42-.04s-.22,0-.3,0Z"/><path class="cls-1" d="M496.05,140.36c-.21-.46-.62-.69-1.24-.69-.71,0-1.2.23-1.44.69-.13.26-.2.66-.2,1.18v5.77h-2.54v-9.56h2.43v1.4c.31-.5.6-.85.88-1.06.49-.38,1.12-.56,1.89-.56.73,0,1.32.16,1.78.48.36.3.64.68.83,1.15.33-.56.74-.98,1.22-1.24.52-.26,1.09-.4,1.72-.4.42,0,.84.08,1.25.25s.78.45,1.12.86c.27.33.45.74.54,1.23.06.32.09.79.09,1.42l-.02,6.04h-2.57v-6.1c0-.36-.06-.66-.18-.9-.22-.45-.63-.67-1.23-.67-.69,0-1.17.29-1.43.86-.13.3-.2.67-.2,1.1v5.7h-2.52v-5.7c0-.57-.06-.98-.18-1.24Z"/><path class="cls-1" d="M507.04,138.76c.66-.84,1.8-1.27,3.41-1.27,1.05,0,1.98.21,2.79.62s1.22,1.2,1.22,2.36v4.39c0,.3,0,.67.02,1.11.02.33.07.55.15.67s.21.21.37.29v.37h-2.72c-.08-.19-.13-.38-.16-.54s-.05-.36-.07-.58c-.35.38-.74.69-1.2.96-.54.31-1.15.47-1.83.47-.87,0-1.58-.25-2.15-.74s-.85-1.2-.85-2.1c0-1.18.45-2.03,1.36-2.56.5-.29,1.23-.49,2.2-.62l.85-.11c.46-.06.79-.13.99-.22.36-.15.54-.39.54-.71,0-.39-.14-.66-.41-.81s-.67-.22-1.2-.22c-.59,0-1.01.15-1.26.44-.18.22-.29.51-.35.88h-2.42c.05-.84.29-1.53.7-2.07ZM508.9,145.49c.23.19.52.29.86.29.54,0,1.04-.16,1.49-.47s.69-.89.71-1.73v-.93c-.16.1-.32.18-.48.24s-.38.12-.66.17l-.56.11c-.53.09-.91.21-1.13.34-.39.23-.58.58-.58,1.06,0,.43.12.74.36.92Z"/><path class="cls-1" d="M521.08,145.52v1.87l-1.19.04c-1.18.04-1.99-.16-2.43-.62-.28-.29-.42-.73-.42-1.33v-5.9h-1.34v-1.78h1.34v-2.67h2.48v2.67h1.56v1.78h-1.56v5.06c0,.39.05.64.15.73s.4.15.91.15c.08,0,.16,0,.24,0s.17,0,.25-.01Z"/><path class="cls-1" d="M525.26,134.27v2.31h-2.54v-2.31h2.54ZM525.26,137.72v9.58h-2.54v-9.58h2.54Z"/><path class="cls-1" d="M535.68,138.94c.81,1.01,1.21,2.21,1.21,3.59s-.4,2.61-1.21,3.61-2.04,1.5-3.68,1.5-2.87-.5-3.68-1.5-1.21-2.2-1.21-3.61.4-2.58,1.21-3.59,2.04-1.52,3.68-1.52,2.87.51,3.68,1.52ZM531.98,139.53c-.73,0-1.3.26-1.69.78s-.59,1.26-.59,2.22.2,1.7.59,2.22.96.78,1.69.78,1.29-.26,1.69-.78.59-1.26.59-2.22-.2-1.7-.59-2.22-.96-.78-1.69-.78Z"/><path class="cls-1" d="M543.19,139.58c-.85,0-1.43.36-1.75,1.08-.16.38-.25.87-.25,1.46v5.19h-2.5v-9.56h2.42v1.4c.32-.49.63-.85.91-1.06.52-.39,1.17-.58,1.96-.58.99,0,1.8.26,2.43.78s.94,1.38.94,2.58v6.45h-2.57v-5.83c0-.5-.07-.89-.2-1.16-.25-.49-.71-.74-1.41-.74Z"/><path class="cls-1" d="M457.36,164.24h-2.75v4.66h-2.69v-12.96h5.64c1.3,0,2.34.33,3.11,1s1.16,1.7,1.16,3.1c0,1.53-.39,2.61-1.16,3.24s-1.88.95-3.31.95ZM458.63,161.55c.35-.31.53-.8.53-1.48s-.18-1.15-.53-1.44-.85-.43-1.49-.43h-2.52v3.81h2.52c.64,0,1.14-.16,1.49-.47Z"/><path class="cls-1" d="M468.48,161.63c-1.01,0-1.68.33-2.03.98-.19.37-.29.94-.29,1.71v4.58h-2.52v-9.58h2.39v1.67c.39-.64.72-1.08,1.01-1.31.47-.39,1.08-.59,1.83-.59.05,0,.09,0,.12,0s.1,0,.21.01v2.57c-.16-.02-.3-.03-.42-.04s-.22,0-.3,0Z"/><path class="cls-1" d="M478.66,160.54c.81,1.01,1.21,2.21,1.21,3.59s-.4,2.61-1.21,3.61-2.04,1.5-3.68,1.5-2.87-.5-3.68-1.5-1.21-2.2-1.21-3.61.4-2.58,1.21-3.59,2.04-1.52,3.68-1.52,2.87.51,3.68,1.52ZM474.97,161.13c-.73,0-1.3.26-1.69.78s-.59,1.26-.59,2.22.2,1.7.59,2.22.96.78,1.69.78,1.29-.26,1.69-.78.59-1.26.59-2.22-.2-1.7-.59-2.22-.96-.78-1.69-.78Z"/><path class="cls-1" d="M489.95,162.76h-2.57c-.05-.36-.17-.68-.36-.97-.28-.39-.72-.58-1.31-.58-.84,0-1.42.42-1.73,1.26-.16.45-.25,1.04-.25,1.78s.08,1.27.25,1.7c.3.8.86,1.2,1.69,1.2.59,0,1-.16,1.25-.47s.4-.73.45-1.23h2.56c-.06.76-.33,1.48-.83,2.16-.79,1.1-1.95,1.64-3.49,1.64s-2.67-.46-3.4-1.37-1.09-2.1-1.09-3.56c0-1.65.4-2.93,1.2-3.84s1.91-1.37,3.32-1.37c1.2,0,2.18.27,2.95.81s1.22,1.49,1.36,2.86Z"/><path class="cls-1" d="M499.88,166.09c-.06.57-.36,1.15-.89,1.73-.82.93-1.97,1.4-3.45,1.4-1.22,0-2.29-.39-3.23-1.18s-1.4-2.06-1.4-3.83c0-1.66.42-2.93,1.26-3.81s1.93-1.33,3.27-1.33c.8,0,1.51.15,2.15.45s1.17.77,1.58,1.42c.38.57.62,1.23.73,1.98.06.44.09,1.07.08,1.9h-6.56c.04.96.34,1.63.91,2.02.35.24.76.36,1.25.36.52,0,.93-.15,1.26-.44.18-.16.33-.38.47-.66h2.56ZM497.4,163.15c-.04-.66-.24-1.16-.6-1.51s-.81-.51-1.34-.51c-.58,0-1.03.18-1.35.54s-.52.86-.6,1.48h3.89Z"/><path class="cls-1" d="M508.29,159.76c.75.48,1.18,1.31,1.29,2.48h-2.5c-.04-.32-.13-.58-.27-.76-.28-.34-.74-.51-1.41-.51-.54,0-.93.08-1.16.25s-.35.37-.35.6c0,.29.12.5.37.62.25.13,1.12.37,2.61.69,1,.23,1.74.59,2.24,1.06.49.48.74,1.08.74,1.8,0,.95-.35,1.72-1.06,2.33s-1.8.9-3.27.9-2.62-.32-3.33-.95-1.08-1.45-1.08-2.43h2.54c.05.45.17.76.34.95.31.33.88.5,1.72.5.49,0,.88-.07,1.17-.22s.43-.37.43-.66-.12-.5-.35-.64-1.1-.4-2.61-.76c-1.08-.27-1.85-.61-2.29-1.01-.45-.4-.67-.97-.67-1.72,0-.88.35-1.64,1.04-2.28s1.67-.95,2.93-.95,2.17.24,2.93.71Z"/><path class="cls-1" d="M518.3,159.76c.75.48,1.18,1.31,1.29,2.48h-2.5c-.04-.32-.13-.58-.27-.76-.28-.34-.74-.51-1.41-.51-.54,0-.93.08-1.16.25s-.35.37-.35.6c0,.29.12.5.37.62.25.13,1.12.37,2.61.69,1,.23,1.74.59,2.24,1.06.49.48.74,1.08.74,1.8,0,.95-.35,1.72-1.06,2.33s-1.8.9-3.27.9-2.62-.32-3.33-.95-1.08-1.45-1.08-2.43h2.54c.05.45.17.76.34.95.31.33.88.5,1.72.5.49,0,.88-.07,1.17-.22s.43-.37.43-.66-.12-.5-.35-.64-1.1-.4-2.61-.76c-1.08-.27-1.85-.61-2.29-1.01-.45-.4-.67-.97-.67-1.72,0-.88.35-1.64,1.04-2.28s1.67-.95,2.93-.95,2.17.24,2.93.71Z"/><path class="cls-1" d="M524.28,155.87v2.31h-2.54v-2.31h2.54ZM524.28,159.32v9.58h-2.54v-9.58h2.54Z"/><path class="cls-1" d="M531.22,161.18c-.85,0-1.43.36-1.75,1.08-.16.38-.25.87-.25,1.46v5.19h-2.5v-9.56h2.42v1.4c.32-.49.63-.85.91-1.06.52-.39,1.17-.58,1.96-.58.99,0,1.8.26,2.43.78s.94,1.38.94,2.58v6.45h-2.57v-5.83c0-.5-.07-.89-.2-1.16-.25-.49-.71-.74-1.41-.74Z"/><path class="cls-1" d="M540.41,170.58c.27.23.72.34,1.36.34.9,0,1.51-.3,1.81-.91.2-.39.3-1.04.3-1.95v-.62c-.24.41-.5.72-.77.92-.5.38-1.15.57-1.94.57-1.23,0-2.21-.43-2.95-1.3s-1.1-2.04-1.1-3.51.35-2.62,1.06-3.59,1.71-1.46,3.01-1.46c.48,0,.9.07,1.26.22.61.25,1.1.71,1.48,1.39v-1.38h2.43v9.09c0,1.24-.21,2.17-.62,2.79-.71,1.08-2.09,1.62-4.11,1.62-1.22,0-2.22-.24-3-.72s-1.2-1.2-1.28-2.15h2.72c.07.29.18.5.34.63ZM539.99,165.63c.34.81.95,1.21,1.83,1.21.59,0,1.08-.22,1.49-.66s.61-1.15.61-2.11c0-.91-.19-1.6-.58-2.07s-.9-.71-1.54-.71c-.88,0-1.49.41-1.82,1.24-.18.44-.26.98-.26,1.63,0,.56.09,1.05.28,1.49Z"/><line class="cls-5" x1="462.78" y1="182.82" x2="535.24" y2="182.82"/><polygon class="cls-1" points="533.06 190.3 546.01 182.82 533.06 175.34 533.06 190.3"/><path class="cls-1" d="M501.18,108.18v6.04h-3.85v-6.04h-6.01v-3.82h6.01v-6.01h3.85v6.01h6.01v3.82h-6.01Z"/><path class="cls-3" d="M381.78,35.84c0-6.91,5.48-12.54,12.34-12.78v-7.24c0-8.74-7.08-15.82-15.82-15.82h-157.25c0,7.06-5.73,12.79-12.79,12.79-7.06,0-12.79-5.72-12.79-12.79h-5.62C181.11,0,174.12,7.08,174.12,15.82v149.62c7.06,0,12.7,5.73,12.7,12.79s-5.64,12.79-12.7,12.79v6.06c0,8.74,6.99,15.82,15.73,15.82h153.84c0-7.06,5.73-12.79,12.79-12.79s12.79,5.73,12.79,12.79h9.03c8.74,0,15.82-7.08,15.82-15.82V48.61c-6.85-.24-12.34-5.86-12.34-12.78Z"/><path class="cls-7" d="M317.1,147.03h-59.65c-4.54,0-8.21-3.68-8.21-8.21v-59.65c0-4.54,3.68-8.21,8.21-8.21h59.65c4.54,0,8.21,3.68,8.21,8.21v59.65c0,4.54-3.68,8.21-8.21,8.21Z"/><path class="cls-8" d="M284.42,68.71c-.58.66-.91,1.51-.91,2.39v9.42h7.19v-8.05l7.69-8.66-5.38-4.78-8.6,9.68Z"/><path class="cls-8" d="M299.3,71.1v9.42h7.19v-5.82h40.87v-7.19h-44.47c-1.99,0-3.6,1.61-3.6,3.6Z"/><path class="cls-8" d="M267.72,144.84l-27.25,36.54c-.46.62-.71,1.38-.71,2.15v29.37h7.19v-28.18l27.25-36.54c.46-.62.71-1.38.71-2.15v-9.42h-7.19v8.22Z"/><path class="cls-8" d="M283.51,145.65l-7.87,37.13c-.05.24-.08.5-.08.75v29.37h7.19v-28.99l7.87-37.13c.05-.24.08-.5.08-.75v-9.42h-7.19v9.04h0Z"/><path class="cls-8" d="M306.49,145.22v-8.6h-7.19v9.42c0,.54.12,1.06.35,1.55l17.52,36.76v28.56h7.19v-29.37c0-.54-.12-1.06-.35-1.55l-17.52-36.76Z"/><rect class="cls-8" x="315.16" y="89.18" width="78.96" height="7.19"/><rect class="cls-8" x="315.16" y="104.97" width="78.96" height="7.19"/><rect class="cls-8" x="315.16" y="120.75" width="78.96" height="7.19"/><polygon class="cls-8" points="259.06 96.37 259.06 89.18 249.64 89.18 174.12 89.18 174.12 96.37 249.64 96.37 259.06 96.37"/><polygon class="cls-8" points="259.06 112.16 259.06 104.97 249.64 104.97 174.12 104.97 174.12 112.16 249.64 112.16 259.06 112.16"/><rect class="cls-8" x="233.57" y="120.75" width="25.49" height="7.19"/><polygon class="cls-8" points="267.72 71.1 267.72 80.51 274.92 80.51 274.92 71.1 274.92 0 267.72 0 267.72 71.1"/><path class="cls-8" d="M306.49,36.87V0h-7.19v35.73l-3.85,5.44-4.75-5.61V0h-7.19v36.87c0,.85.3,1.67.85,2.32l8.6,10.16c.68.81,1.69,1.27,2.75,1.27.05,0,.1,0,.16,0,1.11-.05,2.14-.61,2.78-1.52l7.19-10.16c.43-.61.66-1.33.66-2.08Z"/><path class="cls-8" d="M335.11,40.47h12.26v-7.19h-8.66V0h-7.19v36.87c0,1.99,1.61,3.6,3.6,3.6Z"/><path class="cls-8" d="M240.88,36.87V0h-7.19v33.28h-18.22v7.19h21.82c1.99,0,3.6-1.61,3.6-3.6Z"/><path class="cls-8" d="M240.45,70.31l17.06-31.74c.28-.52.43-1.11.43-1.7V0h-7.19v35.97l-15.62,29.05h-19.67v7.19h21.82c1.32,0,2.54-.73,3.17-1.89Z"/><path class="cls-8" d="M302.9,57.82h16.97c1.99,0,3.6-1.61,3.6-3.6V0h-7.19v50.63h-13.38v7.19h0Z"/><path class="cls-8" d="M350.96,154.12v16.5h7.19v-12.9h35.97v-7.19h-39.56c-1.99,0-3.6,1.61-3.6,3.6Z"/><rect class="cls-8" x="339.52" y="136.61" width="54.6" height="7.19"/><rect class="cls-8" x="174.12" y="120.75" width="45.06" height="7.19"/><rect class="cls-8" x="204.68" y="185" width="7.19" height="27.9"/><rect class="cls-8" x="174.12" y="33.28" width="26.96" height="7.19"/><rect class="cls-8" x="174.12" y="66.13" width="26.96" height="7.19"/><path class="cls-8" d="M229.79,151.66l-21.37-15.12c-.61-.43-1.33-.66-2.08-.66h-32.23v7.19h31.08l11.2,7.93h-42.29v7.19h53.6c1.57,0,2.95-1.01,3.43-2.51.47-1.49-.07-3.12-1.35-4.03Z"/><rect class="cls-4" x="249.25" y="104.97" width="9.81" height="7.19"/><rect class="cls-4" x="249.25" y="89.18" width="9.81" height="7.19"/><rect class="cls-4" x="249.25" y="120.75" width="9.81" height="7.19"/><path class="cls-4" d="M306.49,74.69h17.48c-1.47-2.24-3.99-3.73-6.87-3.73h-17.8s0,.09,0,.13v9.42h7.19v-5.82h0Z"/><rect class="cls-4" x="267.72" y="70.97" width="7.19" height="9.55"/><path class="cls-4" d="M283.51,80.51h7.19v-8.05l1.33-1.5h-8.52s0,.09,0,.13v9.42Z"/><path class="cls-4" d="M274.92,146.03v-9.42h-7.19v8.22l-1.64,2.2h8.68c.09-.32.15-.66.15-1Z"/><rect class="cls-4" x="315.16" y="89.18" width="10.16" height="7.19"/><rect class="cls-4" x="315.16" y="120.75" width="10.16" height="7.19"/><rect class="cls-4" x="315.16" y="104.97" width="10.16" height="7.19"/><path class="cls-4" d="M290.63,146.78c.05-.24.08-.5.08-.75v-9.42h-7.19v9.04l-.29,1.38h7.35l.05-.26Z"/><path class="cls-4" d="M306.49,145.22v-8.6h-7.19v9.42c0,.34.05.68.15,1h7.91l-.87-1.82Z"/><path class="cls-6" d="M310.4,138.48h-46.24c-3.52,0-6.37-2.85-6.37-6.37v-46.24c0-3.52,2.85-6.37,6.37-6.37h46.24c3.52,0,6.37,2.85,6.37,6.37v46.24c0,3.52-2.85,6.37-6.37,6.37Z"/><path class="cls-2" d="M310.4,79.51h-12.78c3.52,0,6.37,2.85,6.37,6.37v46.24c0,3.52-2.85,6.37-6.37,6.37h12.78c3.52,0,6.37-2.85,6.37-6.37v-46.24c0-3.52-2.85-6.37-6.37-6.37Z"/><path class="cls-8" d="M287.22,121.72h0c-7.02,0-12.72-5.69-12.72-12.72h0c0-7.02,5.69-12.72,12.72-12.72h0c7.02,0,12.72,5.69,12.72,12.72h0c0,7.02-5.69,12.72-12.72,12.72Z"/><path class="cls-4" d="M208.27,47.66c-5.95,0-10.79-4.84-10.79-10.79s4.84-10.79,10.79-10.79,10.79,4.84,10.79,10.79-4.84,10.79-10.79,10.79ZM208.27,33.28c-1.98,0-3.6,1.61-3.6,3.6s1.61,3.6,3.6,3.6,3.6-1.61,3.6-3.6-1.61-3.6-3.6-3.6Z"/><path class="cls-4" d="M208.27,79.4c-5.95,0-10.79-4.84-10.79-10.79s4.84-10.79,10.79-10.79,10.79,4.84,10.79,10.79-4.84,10.79-10.79,10.79ZM208.27,65.01c-1.98,0-3.6,1.61-3.6,3.6s1.61,3.6,3.6,3.6,3.6-1.61,3.6-3.6-1.61-3.6-3.6-3.6Z"/><path class="cls-4" d="M295.7,65.01c-5.95,0-10.79-4.84-10.79-10.79s4.84-10.79,10.79-10.79,10.79,4.84,10.79,10.79-4.84,10.79-10.79,10.79ZM295.7,50.63c-1.98,0-3.6,1.61-3.6,3.6s1.61,3.6,3.6,3.6,3.6-1.61,3.6-3.6c0-1.98-1.61-3.6-3.6-3.6Z"/><path class="cls-4" d="M354.56,81.88c-5.95,0-10.79-4.84-10.79-10.79s4.84-10.79,10.79-10.79,10.79,4.84,10.79,10.79c0,5.95-4.84,10.79-10.79,10.79ZM354.56,67.5c-1.98,0-3.6,1.61-3.6,3.6s1.61,3.6,3.6,3.6,3.6-1.61,3.6-3.6c0-1.98-1.61-3.6-3.6-3.6Z"/><path class="cls-4" d="M208.27,188.6c-5.95,0-10.79-4.84-10.79-10.79s4.84-10.79,10.79-10.79,10.79,4.84,10.79,10.79-4.84,10.79-10.79,10.79ZM208.27,174.21c-1.98,0-3.6,1.61-3.6,3.6s1.61,3.6,3.6,3.6,3.6-1.61,3.6-3.6-1.61-3.6-3.6-3.6Z"/><path class="cls-4" d="M234.91,165.39c-5.95,0-10.79-4.84-10.79-10.79s4.84-10.79,10.79-10.79,10.79,4.84,10.79,10.79c0,5.95-4.84,10.79-10.79,10.79ZM234.91,151c-1.98,0-3.6,1.61-3.6,3.6s1.61,3.6,3.6,3.6,3.6-1.61,3.6-3.6-1.61-3.6-3.6-3.6Z"/><path class="cls-4" d="M354.56,188.6c-5.95,0-10.79-4.84-10.79-10.79s4.84-10.79,10.79-10.79,10.79,4.84,10.79,10.79-4.84,10.79-10.79,10.79ZM354.56,174.21c-1.98,0-3.6,1.61-3.6,3.6s1.61,3.6,3.6,3.6,3.6-1.61,3.6-3.6-1.61-3.6-3.6-3.6Z"/><path class="cls-4" d="M332.32,151c-5.95,0-10.79-4.84-10.79-10.79s4.84-10.79,10.79-10.79,10.79,4.84,10.79,10.79c0,5.95-4.84,10.79-10.79,10.79ZM332.32,136.61c-1.98,0-3.6,1.61-3.6,3.6s1.61,3.6,3.6,3.6,3.6-1.61,3.6-3.6-1.61-3.6-3.6-3.6Z"/><path class="cls-4" d="M226.38,135.14c-5.95,0-10.79-4.84-10.79-10.79s4.84-10.79,10.79-10.79,10.79,4.84,10.79,10.79c0,5.95-4.84,10.79-10.79,10.79ZM226.38,120.75c-1.98,0-3.6,1.61-3.6,3.6s1.61,3.6,3.6,3.6,3.6-1.61,3.6-3.6c0-1.98-1.61-3.6-3.6-3.6Z"/><path class="cls-4" d="M354.56,47.66c-5.95,0-10.79-4.84-10.79-10.79s4.84-10.79,10.79-10.79,10.79,4.84,10.79,10.79-4.84,10.79-10.79,10.79ZM354.56,33.28c-1.98,0-3.6,1.61-3.6,3.6s1.61,3.6,3.6,3.6,3.6-1.61,3.6-3.6c0-1.98-1.61-3.6-3.6-3.6Z"/></svg>