<?xml version="1.0" encoding="UTF-8"?><svg id="Layer_1" xmlns="http://www.w3.org/2000/svg" viewBox="0 0 496.42 212.9"><defs><style>.cls-1{fill:#bcbec0;}.cls-2{fill:#002a18;}.cls-3{fill:#41ab5d;}.cls-4{fill:#238443;}.cls-5{fill:none;stroke:#bcbec0;stroke-linecap:round;stroke-miterlimit:10;stroke-width:5px;}.cls-6{fill:#004529;}.cls-7{fill:#006837;}.cls-8{fill:#78c679;}</style></defs><line class="cls-5" x1="13.2" y1="129.76" x2="85.66" y2="129.76"/><polygon class="cls-1" points="83.47 137.24 96.42 129.76 83.47 122.28 83.47 137.24"/><path class="cls-1" d="M451.6,108.35v6.04h-3.85v-6.04h-6.01v-3.82h6.01v-6.01h3.85v6.01h6.01v3.82h-6.01Z"/><path class="cls-3" d="M347.19,35.84c0-6.91,5.48-12.54,12.34-12.78v-7.24c0-8.74-7.08-15.82-15.82-15.82h-157.25c0,7.06-5.73,12.79-12.79,12.79-7.06,0-12.79-5.72-12.79-12.79h-5.62C146.52,0,139.53,7.08,139.53,15.82v149.62c7.06,0,12.7,5.73,12.7,12.79s-5.64,12.79-12.7,12.79v6.06c0,8.74,6.99,15.82,15.73,15.82h153.84c0-7.06,5.73-12.79,12.79-12.79s12.79,5.73,12.79,12.79h9.03c8.74,0,15.82-7.08,15.82-15.82V48.61c-6.85-.24-12.34-5.86-12.34-12.78Z"/><path class="cls-7" d="M282.51,147.03h-59.65c-4.54,0-8.21-3.68-8.21-8.21v-59.65c0-4.54,3.68-8.21,8.21-8.21h59.65c4.54,0,8.21,3.68,8.21,8.21v59.65c0,4.54-3.68,8.21-8.21,8.21Z"/><path class="cls-8" d="M249.83,68.71c-.58.66-.91,1.51-.91,2.39v9.42h7.19v-8.05l7.69-8.66-5.38-4.78-8.6,9.68Z"/><path class="cls-8" d="M264.71,71.1v9.42h7.19v-5.82h40.87v-7.19h-44.47c-1.99,0-3.6,1.61-3.6,3.6Z"/><path class="cls-8" d="M233.13,144.84l-27.25,36.54c-.46.62-.71,1.38-.71,2.15v29.37h7.19v-28.18l27.25-36.54c.46-.62.71-1.38.71-2.15v-9.42h-7.19v8.22Z"/><path class="cls-8" d="M248.92,145.65l-7.87,37.13c-.05.24-.08.5-.08.75v29.37h7.19v-28.99l7.87-37.13c.05-.24.08-.5.08-.75v-9.42h-7.19v9.04h0Z"/><path class="cls-8" d="M271.9,145.22v-8.6h-7.19v9.42c0,.54.12,1.06.35,1.55l17.52,36.76v28.56h7.19v-29.37c0-.54-.12-1.06-.35-1.55l-17.52-36.76Z"/><rect class="cls-8" x="280.57" y="89.18" width="78.96" height="7.19"/><rect class="cls-8" x="280.57" y="104.97" width="78.96" height="7.19"/><rect class="cls-8" x="280.57" y="120.75" width="78.96" height="7.19"/><polygon class="cls-8" points="224.46 96.37 224.46 89.18 215.05 89.18 139.53 89.18 139.53 96.37 215.05 96.37 224.46 96.37"/><polygon class="cls-8" points="224.46 112.16 224.46 104.97 215.05 104.97 139.53 104.97 139.53 112.16 215.05 112.16 224.46 112.16"/><rect class="cls-8" x="198.97" y="120.75" width="25.49" height="7.19"/><polygon class="cls-8" points="233.13 71.1 233.13 80.51 240.32 80.51 240.32 71.1 240.32 0 233.13 0 233.13 71.1"/><path class="cls-8" d="M271.9,36.87V0h-7.19v35.73l-3.85,5.44-4.75-5.61V0h-7.19v36.87c0,.85.3,1.67.85,2.32l8.6,10.16c.68.81,1.69,1.27,2.75,1.27.05,0,.1,0,.16,0,1.11-.05,2.14-.61,2.78-1.52l7.19-10.16c.43-.61.66-1.33.66-2.08Z"/><path class="cls-8" d="M300.51,40.47h12.26v-7.19h-8.66V0h-7.19v36.87c0,1.99,1.61,3.6,3.6,3.6Z"/><path class="cls-8" d="M206.29,36.87V0h-7.19v33.28h-18.22v7.19h21.82c1.99,0,3.6-1.61,3.6-3.6Z"/><path class="cls-8" d="M205.86,70.31l17.06-31.74c.28-.52.43-1.11.43-1.7V0h-7.19v35.97l-15.62,29.05h-19.67v7.19h21.82c1.32,0,2.54-.73,3.17-1.89Z"/><path class="cls-8" d="M268.3,57.82h16.97c1.99,0,3.6-1.61,3.6-3.6V0h-7.19v50.63h-13.38v7.19h0Z"/><path class="cls-8" d="M316.37,154.12v16.5h7.19v-12.9h35.97v-7.19h-39.56c-1.99,0-3.6,1.61-3.6,3.6Z"/><rect class="cls-8" x="304.92" y="136.61" width="54.6" height="7.19"/><rect class="cls-8" x="139.53" y="120.75" width="45.06" height="7.19"/><rect class="cls-8" x="170.09" y="185" width="7.19" height="27.9"/><rect class="cls-8" x="139.53" y="33.28" width="26.96" height="7.19"/><rect class="cls-8" x="139.53" y="66.13" width="26.96" height="7.19"/><path class="cls-8" d="M195.2,151.66l-21.37-15.12c-.61-.43-1.33-.66-2.08-.66h-32.23v7.19h31.08l11.2,7.93h-42.29v7.19h53.6c1.57,0,2.95-1.01,3.43-2.51.47-1.49-.07-3.12-1.35-4.03Z"/><rect class="cls-4" x="214.65" y="104.97" width="9.81" height="7.19"/><rect class="cls-4" x="214.65" y="89.18" width="9.81" height="7.19"/><rect class="cls-4" x="214.65" y="120.75" width="9.81" height="7.19"/><path class="cls-4" d="M271.9,74.69h17.48c-1.47-2.24-3.99-3.73-6.87-3.73h-17.8s0,.09,0,.13v9.42h7.19v-5.82h0Z"/><rect class="cls-4" x="233.13" y="70.97" width="7.19" height="9.55"/><path class="cls-4" d="M248.92,80.51h7.19v-8.05l1.33-1.5h-8.52s0,.09,0,.13v9.42Z"/><path class="cls-4" d="M240.32,146.03v-9.42h-7.19v8.22l-1.64,2.2h8.68c.09-.32.15-.66.15-1Z"/><rect class="cls-4" x="280.57" y="89.18" width="10.16" height="7.19"/><rect class="cls-4" x="280.57" y="120.75" width="10.16" height="7.19"/><rect class="cls-4" x="280.57" y="104.97" width="10.16" height="7.19"/><path class="cls-4" d="M256.03,146.78c.05-.24.08-.5.08-.75v-9.42h-7.19v9.04l-.29,1.38h7.35l.05-.26Z"/><path class="cls-4" d="M271.9,145.22v-8.6h-7.19v9.42c0,.34.05.68.15,1h7.91l-.87-1.82Z"/><path class="cls-6" d="M275.81,138.48h-46.24c-3.52,0-6.37-2.85-6.37-6.37v-46.24c0-3.52,2.85-6.37,6.37-6.37h46.24c3.52,0,6.37,2.85,6.37,6.37v46.24c0,3.52-2.85,6.37-6.37,6.37Z"/><path class="cls-2" d="M275.81,79.51h-12.78c3.52,0,6.37,2.85,6.37,6.37v46.24c0,3.52-2.85,6.37-6.37,6.37h12.78c3.52,0,6.37-2.85,6.37-6.37v-46.24c0-3.52-2.85-6.37-6.37-6.37Z"/><path class="cls-8" d="M252.62,121.72h0c-7.02,0-12.72-5.69-12.72-12.72h0c0-7.02,5.69-12.72,12.72-12.72h0c7.02,0,12.72,5.69,12.72,12.72h0c0,7.02-5.69,12.72-12.72,12.72Z"/><path class="cls-4" d="M173.68,47.66c-5.95,0-10.79-4.84-10.79-10.79s4.84-10.79,10.79-10.79,10.79,4.84,10.79,10.79-4.84,10.79-10.79,10.79ZM173.68,33.28c-1.98,0-3.6,1.61-3.6,3.6s1.61,3.6,3.6,3.6,3.6-1.61,3.6-3.6-1.61-3.6-3.6-3.6Z"/><path class="cls-4" d="M173.68,79.4c-5.95,0-10.79-4.84-10.79-10.79s4.84-10.79,10.79-10.79,10.79,4.84,10.79,10.79-4.84,10.79-10.79,10.79ZM173.68,65.01c-1.98,0-3.6,1.61-3.6,3.6s1.61,3.6,3.6,3.6,3.6-1.61,3.6-3.6-1.61-3.6-3.6-3.6Z"/><path class="cls-4" d="M261.11,65.01c-5.95,0-10.79-4.84-10.79-10.79s4.84-10.79,10.79-10.79,10.79,4.84,10.79,10.79-4.84,10.79-10.79,10.79ZM261.11,50.63c-1.98,0-3.6,1.61-3.6,3.6s1.61,3.6,3.6,3.6,3.6-1.61,3.6-3.6c0-1.98-1.61-3.6-3.6-3.6Z"/><path class="cls-4" d="M319.96,81.88c-5.95,0-10.79-4.84-10.79-10.79s4.84-10.79,10.79-10.79,10.79,4.84,10.79,10.79c0,5.95-4.84,10.79-10.79,10.79ZM319.96,67.5c-1.98,0-3.6,1.61-3.6,3.6s1.61,3.6,3.6,3.6,3.6-1.61,3.6-3.6c0-1.98-1.61-3.6-3.6-3.6Z"/><path class="cls-4" d="M173.68,188.6c-5.95,0-10.79-4.84-10.79-10.79s4.84-10.79,10.79-10.79,10.79,4.84,10.79,10.79-4.84,10.79-10.79,10.79ZM173.68,174.21c-1.98,0-3.6,1.61-3.6,3.6s1.61,3.6,3.6,3.6,3.6-1.61,3.6-3.6-1.61-3.6-3.6-3.6Z"/><path class="cls-4" d="M200.31,165.39c-5.95,0-10.79-4.84-10.79-10.79s4.84-10.79,10.79-10.79,10.79,4.84,10.79,10.79c0,5.95-4.84,10.79-10.79,10.79ZM200.31,151c-1.98,0-3.6,1.61-3.6,3.6s1.61,3.6,3.6,3.6,3.6-1.61,3.6-3.6-1.61-3.6-3.6-3.6Z"/><path class="cls-4" d="M319.96,188.6c-5.95,0-10.79-4.84-10.79-10.79s4.84-10.79,10.79-10.79,10.79,4.84,10.79,10.79-4.84,10.79-10.79,10.79ZM319.96,174.21c-1.98,0-3.6,1.61-3.6,3.6s1.61,3.6,3.6,3.6,3.6-1.61,3.6-3.6-1.61-3.6-3.6-3.6Z"/><path class="cls-4" d="M297.73,151c-5.95,0-10.79-4.84-10.79-10.79s4.84-10.79,10.79-10.79,10.79,4.84,10.79,10.79c0,5.95-4.84,10.79-10.79,10.79ZM297.73,136.61c-1.98,0-3.6,1.61-3.6,3.6s1.61,3.6,3.6,3.6,3.6-1.61,3.6-3.6-1.61-3.6-3.6-3.6Z"/><path class="cls-4" d="M191.78,135.14c-5.95,0-10.79-4.84-10.79-10.79s4.84-10.79,10.79-10.79,10.79,4.84,10.79,10.79c0,5.95-4.84,10.79-10.79,10.79ZM191.78,120.75c-1.98,0-3.6,1.61-3.6,3.6s1.61,3.6,3.6,3.6,3.6-1.61,3.6-3.6c0-1.98-1.61-3.6-3.6-3.6Z"/><path class="cls-4" d="M319.96,47.66c-5.95,0-10.79-4.84-10.79-10.79s4.84-10.79,10.79-10.79,10.79,4.84,10.79,10.79-4.84,10.79-10.79,10.79ZM319.96,33.28c-1.98,0-3.6,1.61-3.6,3.6s1.61,3.6,3.6,3.6,3.6-1.61,3.6-3.6c0-1.98-1.61-3.6-3.6-3.6Z"/><path class="cls-1" d="M0,83.14h7.29v1.23H1.33v3.05h5.51v1.16H1.33v3.4h6.06v1.2H0v-10.04Z"/><path class="cls-1" d="M9.08,83.14h1.23v10.04h-1.23v-10.04Z"/><path class="cls-1" d="M16.68,86.06c.48.24.85.56,1.11.95.24.37.41.8.49,1.29.07.34.11.88.11,1.61h-5.33c.02.75.2,1.34.52,1.79.33.45.83.67,1.51.67.64,0,1.15-.21,1.53-.64.21-.25.36-.53.45-.86h1.21c-.03.27-.14.57-.32.9-.18.33-.38.6-.6.81-.37.37-.83.61-1.38.74-.29.07-.63.11-1,.11-.91,0-1.67-.33-2.3-.99-.63-.66-.94-1.59-.94-2.79s.32-2.13.95-2.86c.63-.73,1.46-1.1,2.49-1.1.52,0,1.02.12,1.5.37ZM17.12,88.93c-.05-.53-.17-.96-.35-1.28-.33-.59-.89-.89-1.67-.89-.56,0-1.03.2-1.41.61-.38.41-.58.93-.6,1.55h4.03Z"/><path class="cls-1" d="M24.78,86.25c.52.4.83,1.09.93,2.07h-1.2c-.07-.45-.24-.83-.5-1.12-.26-.3-.68-.45-1.25-.45-.78,0-1.34.38-1.68,1.15-.22.5-.33,1.11-.33,1.84s.15,1.35.46,1.85.8.75,1.46.75c.51,0,.92-.16,1.21-.47.3-.31.5-.74.62-1.28h1.2c-.14.97-.48,1.68-1.03,2.13-.55.45-1.25.67-2.1.67-.96,0-1.72-.35-2.29-1.05-.57-.7-.85-1.57-.85-2.62,0-1.29.31-2.29.94-3,.62-.71,1.42-1.07,2.39-1.07.82,0,1.5.2,2.01.6Z"/><path class="cls-1" d="M27.19,83.81h1.24v2.04h1.17v1h-1.17v4.78c0,.26.09.43.26.51.1.05.26.08.48.08.06,0,.12,0,.19,0s.15-.01.24-.02v.98c-.14.04-.29.07-.44.09-.15.02-.32.03-.5.03-.57,0-.96-.15-1.17-.44s-.31-.68-.31-1.15v-4.85h-.99v-1h.99v-2.04Z"/><path class="cls-1" d="M30.86,85.86h1.17v1.26c.1-.25.33-.55.7-.9.37-.35.8-.53,1.29-.53.02,0,.06,0,.12,0,.05,0,.15.01.28.03v1.3c-.07-.01-.14-.02-.2-.03-.06,0-.13,0-.2,0-.62,0-1.1.2-1.43.6-.33.4-.5.86-.5,1.38v4.21h-1.23v-7.32Z"/><path class="cls-1" d="M40.8,86.59c.65.63.97,1.55.97,2.77s-.29,2.15-.86,2.92c-.57.77-1.45,1.15-2.65,1.15-1,0-1.79-.34-2.38-1.02s-.88-1.59-.88-2.74c0-1.23.31-2.21.93-2.94.62-.73,1.45-1.09,2.5-1.09.94,0,1.73.31,2.38.94ZM40.03,91.46c.3-.62.45-1.3.45-2.06,0-.68-.11-1.24-.32-1.67-.34-.67-.93-1.01-1.77-1.01-.74,0-1.28.29-1.62.86-.34.57-.51,1.27-.51,2.08s.17,1.43.51,1.95c.34.52.87.78,1.61.78.81,0,1.36-.31,1.66-.92Z"/><path class="cls-1" d="M43.28,85.86h1.22v1.04c.29-.36.56-.62.79-.79.41-.28.87-.42,1.38-.42.58,0,1.05.14,1.41.43.2.16.38.41.55.72.27-.39.59-.68.96-.87.37-.19.78-.28,1.24-.28.98,0,1.65.36,2.01,1.07.19.38.29.9.29,1.54v4.87h-1.28v-5.09c0-.49-.12-.82-.37-1-.24-.18-.54-.27-.89-.27-.48,0-.9.16-1.25.49-.35.32-.52.86-.52,1.62v4.26h-1.25v-4.78c0-.5-.06-.86-.18-1.09-.19-.34-.54-.51-1.05-.51-.46,0-.89.18-1.27.54-.38.36-.57,1.01-.57,1.96v3.88h-1.23v-7.32Z"/><path class="cls-1" d="M58.86,88.75c.28-.04.47-.15.57-.35.05-.11.08-.27.08-.47,0-.42-.15-.73-.45-.92-.3-.19-.72-.29-1.28-.29-.64,0-1.1.17-1.36.52-.15.19-.25.48-.29.86h-1.15c.02-.9.32-1.53.88-1.89.56-.35,1.21-.53,1.96-.53.86,0,1.56.16,2.1.49.53.33.8.84.8,1.53v4.22c0,.13.03.23.08.31.05.08.16.12.33.12.05,0,.12,0,.18,0s.14-.02.22-.03v.91c-.19.05-.34.09-.44.1s-.24.02-.41.02c-.42,0-.73-.15-.92-.45-.1-.16-.17-.38-.21-.68-.25.33-.61.61-1.08.85-.47.24-.99.36-1.55.36-.68,0-1.23-.21-1.66-.62-.43-.41-.65-.93-.65-1.55,0-.68.21-1.2.64-1.58s.98-.6,1.67-.69l1.96-.25ZM56.27,92.07c.26.21.57.31.92.31.43,0,.85-.1,1.26-.3.68-.33,1.03-.88,1.03-1.63v-.99c-.15.1-.34.18-.58.24-.24.06-.47.11-.7.14l-.74.1c-.45.06-.78.15-1.01.28-.38.21-.57.55-.57,1.02,0,.35.13.63.39.84Z"/><path class="cls-1" d="M66.8,86.15c.23.16.47.39.71.7v-.92h1.13v6.66c0,.93-.14,1.66-.41,2.2-.51.99-1.47,1.49-2.88,1.49-.79,0-1.45-.18-1.98-.53-.54-.35-.84-.91-.9-1.66h1.25c.06.33.18.58.35.76.28.27.71.41,1.31.41.94,0,1.55-.33,1.84-1,.17-.39.25-1.09.24-2.1-.25.37-.54.65-.89.83-.34.18-.8.27-1.37.27-.79,0-1.48-.28-2.07-.84-.59-.56-.89-1.49-.89-2.79,0-1.23.3-2.18.9-2.87.6-.69,1.32-1.03,2.16-1.03.57,0,1.07.14,1.5.42ZM66.95,87.47c-.37-.44-.85-.66-1.42-.66-.86,0-1.45.41-1.77,1.22-.17.43-.25,1-.25,1.7,0,.83.17,1.45.5,1.88.33.43.78.65,1.34.65.88,0,1.5-.4,1.86-1.2.2-.45.3-.98.3-1.58,0-.91-.19-1.58-.56-2.02Z"/><path class="cls-1" d="M70.51,85.86h1.17v1.04c.35-.43.71-.74,1.1-.92.39-.19.82-.28,1.29-.28,1.04,0,1.74.36,2.11,1.09.2.4.3.96.3,1.7v4.7h-1.25v-4.61c0-.45-.07-.81-.2-1.08-.22-.46-.62-.68-1.19-.68-.29,0-.53.03-.72.09-.34.1-.63.3-.89.6-.21.24-.34.49-.4.75-.06.26-.09.62-.09,1.1v3.83h-1.23v-7.32Z"/><path class="cls-1" d="M82.82,86.06c.48.24.85.56,1.11.95.24.37.41.8.49,1.29.07.34.11.88.11,1.61h-5.33c.02.75.2,1.34.52,1.79.33.45.83.67,1.51.67.64,0,1.15-.21,1.53-.64.21-.25.36-.53.45-.86h1.21c-.03.27-.14.57-.32.9-.18.33-.38.6-.6.81-.37.37-.83.61-1.38.74-.29.07-.63.11-1,.11-.91,0-1.67-.33-2.3-.99-.63-.66-.94-1.59-.94-2.79s.32-2.13.95-2.86c.63-.73,1.46-1.1,2.49-1.1.52,0,1.02.12,1.5.37ZM83.26,88.93c-.05-.53-.17-.96-.35-1.28-.33-.59-.89-.89-1.67-.89-.56,0-1.03.2-1.41.61-.38.41-.58.93-.6,1.55h4.03Z"/><path class="cls-1" d="M86.33,83.81h1.24v2.04h1.17v1h-1.17v4.78c0,.26.09.43.26.51.1.05.26.08.48.08.06,0,.12,0,.19,0s.15-.01.24-.02v.98c-.14.04-.29.07-.44.09-.15.02-.32.03-.5.03-.57,0-.96-.15-1.17-.44s-.31-.68-.31-1.15v-4.85h-.99v-1h.99v-2.04Z"/><path class="cls-1" d="M89.97,83.14h1.25v1.39h-1.25v-1.39ZM89.97,85.89h1.25v7.29h-1.25v-7.29Z"/><path class="cls-1" d="M97.92,86.25c.52.4.83,1.09.93,2.07h-1.2c-.07-.45-.24-.83-.5-1.12-.26-.3-.68-.45-1.25-.45-.78,0-1.34.38-1.68,1.15-.22.5-.33,1.11-.33,1.84s.15,1.35.46,1.85.8.75,1.46.75c.51,0,.92-.16,1.21-.47.3-.31.5-.74.62-1.28h1.2c-.14.97-.48,1.68-1.03,2.13-.55.45-1.25.67-2.1.67-.96,0-1.72-.35-2.29-1.05-.57-.7-.85-1.57-.85-2.62,0-1.29.31-2.29.94-3,.62-.71,1.42-1.07,2.39-1.07.82,0,1.5.2,2.01.6Z"/><path class="cls-1" d="M28.01,99.94h7.29v1.23h-5.96v3.05h5.51v1.16h-5.51v3.4h6.06v1.2h-7.39v-10.04Z"/><path class="cls-1" d="M37.05,102.66h1.17v1.04c.35-.43.71-.74,1.1-.92.39-.19.82-.28,1.29-.28,1.04,0,1.74.36,2.11,1.09.2.4.3.96.3,1.7v4.7h-1.25v-4.61c0-.45-.07-.81-.2-1.08-.22-.46-.62-.68-1.19-.68-.29,0-.53.03-.72.09-.34.1-.63.3-.89.6-.21.24-.34.49-.4.75-.06.26-.09.62-.09,1.1v3.83h-1.23v-7.32Z"/><path class="cls-1" d="M49.36,102.86c.48.24.85.56,1.11.95.24.37.41.8.49,1.29.07.34.11.88.11,1.61h-5.33c.02.75.2,1.34.52,1.79.33.45.83.67,1.51.67.64,0,1.15-.21,1.53-.64.21-.25.36-.53.45-.86h1.21c-.03.27-.14.57-.32.9-.18.33-.38.6-.6.81-.37.37-.83.61-1.38.74-.29.07-.63.11-1,.11-.91,0-1.67-.33-2.3-.99-.63-.66-.94-1.59-.94-2.79s.32-2.13.95-2.86c.63-.73,1.46-1.1,2.49-1.1.52,0,1.02.12,1.5.37ZM49.8,105.73c-.05-.53-.17-.96-.35-1.28-.33-.59-.89-.89-1.67-.89-.56,0-1.03.2-1.41.61-.38.41-.58.93-.6,1.55h4.03Z"/><path class="cls-1" d="M52.66,102.66h1.17v1.26c.1-.25.33-.55.7-.9.37-.35.8-.53,1.29-.53.02,0,.06,0,.12,0,.05,0,.15.01.28.03v1.3c-.07-.01-.14-.02-.2-.03-.06,0-.13,0-.2,0-.62,0-1.1.2-1.43.6-.33.4-.5.86-.5,1.38v4.21h-1.23v-7.32Z"/><path class="cls-1" d="M61.36,102.95c.23.16.47.39.71.7v-.92h1.13v6.66c0,.93-.14,1.66-.41,2.2-.51.99-1.47,1.49-2.88,1.49-.79,0-1.45-.18-1.98-.53-.54-.35-.84-.91-.9-1.66h1.25c.06.33.18.58.35.76.28.27.71.41,1.31.41.94,0,1.55-.33,1.84-1,.17-.39.25-1.09.24-2.1-.25.37-.54.65-.89.83-.34.18-.8.27-1.37.27-.79,0-1.48-.28-2.07-.84-.59-.56-.89-1.49-.89-2.79,0-1.23.3-2.18.9-2.87.6-.69,1.32-1.03,2.16-1.03.57,0,1.07.14,1.5.42ZM61.51,104.27c-.37-.44-.85-.66-1.42-.66-.86,0-1.45.41-1.77,1.22-.17.43-.25,1-.25,1.7,0,.83.17,1.45.5,1.88.33.43.78.65,1.34.65.88,0,1.5-.4,1.86-1.2.2-.45.3-.98.3-1.58,0-.91-.19-1.58-.56-2.02Z"/><path class="cls-1" d="M69.65,102.66h1.36c-.17.47-.56,1.54-1.16,3.21-.45,1.26-.82,2.28-1.12,3.08-.71,1.87-1.21,3.01-1.5,3.42-.29.41-.79.61-1.5.61-.17,0-.31,0-.4-.02-.09-.01-.21-.04-.34-.08v-1.12c.21.06.37.1.46.11.1.01.18.02.25.02.23,0,.39-.04.5-.11s.2-.17.27-.28c.02-.04.1-.22.25-.56s.24-.59.31-.75l-2.71-7.54h1.39l1.96,5.96,1.98-5.96Z"/><line class="cls-5" x1="413.2" y1="75.66" x2="485.66" y2="75.66"/><polygon class="cls-1" points="483.47 83.13 496.42 75.66 483.47 68.18 483.47 83.13"/><path class="cls-1" d="M435.22,31.45h1.37v4.15h5.16v-4.15h1.37v10.04h-1.37v-4.7h-5.16v4.7h-1.37v-10.04Z"/><path class="cls-1" d="M449.66,34.37c.48.24.85.56,1.11.95.24.37.41.8.49,1.29.07.34.11.88.11,1.61h-5.33c.02.75.2,1.34.52,1.79.33.45.83.68,1.51.68.64,0,1.15-.21,1.53-.64.21-.25.36-.53.45-.86h1.21c-.03.27-.14.57-.32.9-.18.33-.38.6-.6.81-.37.36-.83.61-1.38.74-.29.07-.63.11-1,.11-.91,0-1.67-.33-2.3-.99s-.94-1.59-.94-2.79.32-2.13.95-2.86,1.46-1.1,2.49-1.1c.52,0,1.02.12,1.5.37ZM450.1,37.25c-.05-.53-.17-.96-.35-1.28-.33-.59-.89-.89-1.67-.89-.56,0-1.03.2-1.41.61-.38.41-.58.93-.6,1.56h4.03Z"/><path class="cls-1" d="M456.85,37.06c.28-.04.47-.15.57-.35.05-.11.08-.27.08-.47,0-.42-.15-.73-.45-.92s-.72-.28-1.28-.28c-.64,0-1.1.17-1.37.52-.15.19-.25.48-.29.86h-1.15c.02-.9.32-1.53.88-1.89.56-.35,1.21-.53,1.96-.53.86,0,1.56.16,2.1.49.53.33.8.84.8,1.53v4.22c0,.13.03.23.08.31.05.08.16.12.33.12.05,0,.12,0,.18-.01s.14-.02.22-.03v.91c-.19.05-.34.09-.44.1s-.24.02-.41.02c-.42,0-.73-.15-.92-.45-.1-.16-.17-.38-.21-.68-.25.33-.61.61-1.08.85-.47.24-.99.36-1.55.36-.68,0-1.23-.21-1.66-.62-.43-.41-.65-.93-.65-1.55,0-.68.21-1.2.64-1.58.42-.37.98-.6,1.67-.69l1.96-.25ZM454.25,40.38c.26.2.57.31.92.31.43,0,.85-.1,1.26-.3.68-.33,1.03-.88,1.03-1.63v-.99c-.15.1-.34.18-.58.24s-.47.11-.7.14l-.74.1c-.45.06-.78.15-1.01.28-.38.21-.57.55-.57,1.02,0,.35.13.63.39.84Z"/><path class="cls-1" d="M460.95,32.13h1.24v2.04h1.17v1h-1.17v4.78c0,.26.09.43.26.51.1.05.25.08.48.08.06,0,.12,0,.19,0s.15-.01.24-.02v.98c-.14.04-.29.07-.44.09-.15.02-.32.03-.5.03-.57,0-.96-.15-1.17-.44s-.31-.68-.31-1.15v-4.85h-.99v-1h.99v-2.04Z"/><path class="cls-1" d="M427.93,48.25h7.29v1.23h-5.96v3.05h5.51v1.16h-5.51v3.4h6.06v1.2h-7.39v-10.04Z"/><path class="cls-1" d="M436.97,50.97h1.17v1.04c.35-.43.71-.74,1.1-.92s.82-.28,1.29-.28c1.04,0,1.74.36,2.11,1.09.2.4.3.96.3,1.7v4.7h-1.25v-4.61c0-.45-.07-.81-.2-1.08-.22-.46-.62-.68-1.19-.68-.29,0-.53.03-.72.09-.34.1-.63.3-.89.6-.21.24-.34.49-.4.75-.06.26-.09.63-.09,1.1v3.83h-1.23v-7.32Z"/><path class="cls-1" d="M449.28,51.17c.48.24.85.56,1.11.95.24.37.41.8.49,1.29.07.34.11.88.11,1.61h-5.33c.02.75.2,1.34.52,1.79.33.45.83.68,1.51.68.64,0,1.15-.21,1.53-.64.21-.25.36-.53.45-.86h1.21c-.03.27-.14.57-.32.9-.18.33-.38.6-.6.81-.37.36-.83.61-1.38.74-.29.07-.63.11-1,.11-.91,0-1.67-.33-2.3-.99s-.94-1.59-.94-2.79.32-2.13.95-2.86,1.46-1.1,2.49-1.1c.52,0,1.02.12,1.5.37ZM449.72,54.05c-.05-.53-.17-.96-.35-1.28-.33-.59-.89-.89-1.67-.89-.56,0-1.03.2-1.41.61-.38.41-.58.93-.6,1.56h4.03Z"/><path class="cls-1" d="M452.58,50.97h1.17v1.26c.1-.25.33-.55.7-.9s.8-.53,1.29-.53c.02,0,.06,0,.12,0s.15.01.28.03v1.3c-.07-.01-.14-.02-.2-.03-.06,0-.13,0-.2,0-.62,0-1.1.2-1.43.6s-.5.86-.5,1.38v4.21h-1.23v-7.32Z"/><path class="cls-1" d="M461.27,51.26c.23.16.47.39.71.7v-.92h1.13v6.66c0,.93-.14,1.66-.41,2.2-.51.99-1.47,1.49-2.88,1.49-.79,0-1.45-.18-1.98-.53s-.84-.91-.9-1.66h1.25c.06.33.18.58.35.76.28.27.71.41,1.31.41.94,0,1.55-.33,1.84-1,.17-.39.25-1.09.24-2.1-.25.37-.54.65-.88.83-.35.18-.8.27-1.37.27-.79,0-1.48-.28-2.07-.84-.59-.56-.89-1.49-.89-2.79,0-1.23.3-2.18.9-2.87s1.32-1.03,2.16-1.03c.57,0,1.07.14,1.5.42ZM461.43,52.58c-.37-.44-.85-.66-1.42-.66-.86,0-1.45.41-1.77,1.22-.17.43-.25,1-.25,1.7,0,.82.17,1.45.5,1.88s.78.65,1.34.65c.88,0,1.5-.4,1.86-1.2.2-.45.3-.98.3-1.58,0-.91-.19-1.58-.56-2.02Z"/><path class="cls-1" d="M469.57,50.97h1.36c-.17.47-.56,1.54-1.16,3.21-.45,1.26-.82,2.28-1.12,3.08-.71,1.87-1.21,3.01-1.5,3.42-.29.41-.79.61-1.5.61-.17,0-.31,0-.4-.02-.09-.01-.21-.04-.34-.08v-1.12c.21.06.37.1.46.11s.18.02.25.02c.23,0,.39-.04.5-.11.11-.07.2-.17.27-.28.02-.04.11-.22.25-.56.14-.34.24-.59.31-.75l-2.71-7.54h1.39l1.96,5.96,1.97-5.96Z"/><line class="cls-5" x1="413.2" y1="181.45" x2="485.66" y2="181.45"/><polygon class="cls-1" points="483.47 188.93 496.42 181.45 483.47 173.97 483.47 188.93"/><path class="cls-1" d="M415.56,137.25h1.37v10.04h-1.37v-10.04Z"/><path class="cls-1" d="M418.97,139.97h1.17v1.04c.35-.43.71-.74,1.1-.92.39-.19.82-.28,1.29-.28,1.04,0,1.74.36,2.11,1.09.2.4.3.96.3,1.7v4.7h-1.25v-4.61c0-.45-.07-.81-.2-1.08-.22-.46-.62-.68-1.19-.68-.29,0-.53.03-.72.09-.34.1-.63.3-.89.6-.21.24-.34.49-.4.75-.06.26-.09.63-.09,1.1v3.83h-1.23v-7.32Z"/><path class="cls-1" d="M427.33,137.73c.29-.42.84-.63,1.66-.63.08,0,.16,0,.24,0,.08,0,.18.01.28.02v1.12c-.13,0-.22-.01-.28-.02-.06,0-.11,0-.16,0-.38,0-.6.1-.68.29-.07.19-.11.69-.11,1.48h1.23v.97h-1.23v6.32h-1.22v-6.32h-1.02v-.97h1.02v-1.15c.02-.51.11-.88.27-1.12Z"/><path class="cls-1" d="M435.95,140.7c.65.63.97,1.55.97,2.77s-.29,2.15-.86,2.92-1.46,1.15-2.65,1.15c-1,0-1.79-.34-2.38-1.02-.59-.68-.88-1.59-.88-2.74,0-1.23.31-2.21.93-2.94s1.45-1.09,2.5-1.09c.94,0,1.73.31,2.38.94ZM435.19,145.56c.3-.62.45-1.3.45-2.06,0-.68-.11-1.24-.32-1.67-.34-.67-.93-1.01-1.77-1.01-.74,0-1.28.29-1.62.86-.34.57-.51,1.27-.51,2.08s.17,1.43.51,1.95c.34.52.87.78,1.61.78.81,0,1.36-.31,1.66-.93Z"/><path class="cls-1" d="M438.47,139.97h1.17v1.26c.1-.25.33-.55.7-.9.37-.35.8-.53,1.29-.53.02,0,.06,0,.12,0,.05,0,.15.01.28.03v1.3c-.07-.01-.14-.02-.2-.03-.06,0-.13,0-.2,0-.62,0-1.1.2-1.43.6-.33.4-.5.86-.5,1.38v4.21h-1.23v-7.32Z"/><path class="cls-1" d="M443.1,139.97h1.22v1.04c.29-.36.56-.62.79-.79.41-.28.87-.42,1.38-.42.58,0,1.05.14,1.41.43.2.16.38.41.55.72.27-.39.59-.68.96-.87.37-.19.78-.28,1.24-.28.98,0,1.65.36,2.01,1.07.19.38.29.9.29,1.54v4.87h-1.28v-5.09c0-.49-.12-.82-.37-1-.24-.18-.54-.27-.89-.27-.48,0-.9.16-1.25.49-.35.32-.52.86-.52,1.62v4.26h-1.25v-4.78c0-.5-.06-.86-.18-1.09-.19-.34-.54-.51-1.05-.51-.46,0-.89.18-1.27.54-.38.36-.57,1.01-.57,1.96v3.88h-1.23v-7.32Z"/><path class="cls-1" d="M458.68,142.86c.28-.04.47-.16.57-.36.05-.11.08-.27.08-.47,0-.42-.15-.73-.45-.92-.3-.19-.72-.28-1.28-.28-.64,0-1.1.17-1.37.52-.15.19-.25.48-.29.86h-1.15c.02-.91.32-1.54.88-1.89.56-.35,1.21-.53,1.96-.53.86,0,1.56.16,2.1.49.53.33.8.84.8,1.53v4.22c0,.13.03.23.08.31.05.08.16.12.33.12.05,0,.12,0,.18-.01s.14-.02.22-.03v.91c-.19.05-.34.09-.44.1s-.24.02-.41.02c-.42,0-.73-.15-.92-.45-.1-.16-.17-.38-.21-.68-.25.33-.61.61-1.08.85s-.99.36-1.55.36c-.68,0-1.23-.21-1.66-.62-.43-.41-.65-.93-.65-1.55,0-.68.21-1.2.64-1.58.42-.37.98-.6,1.67-.69l1.96-.25ZM456.09,146.18c.26.2.57.31.92.31.43,0,.85-.1,1.26-.3.68-.33,1.03-.88,1.03-1.63v-.99c-.15.1-.34.18-.58.24-.24.06-.47.11-.7.14l-.74.09c-.45.06-.78.15-1.01.28-.38.21-.57.55-.57,1.02,0,.36.13.63.39.84Z"/><path class="cls-1" d="M462.79,137.92h1.24v2.04h1.17v1h-1.17v4.78c0,.25.09.43.26.51.1.05.25.08.48.08.06,0,.12,0,.19,0s.15-.01.24-.02v.98c-.14.04-.29.07-.44.09-.15.02-.32.03-.5.03-.57,0-.96-.15-1.17-.44s-.31-.68-.31-1.14v-4.85h-.99v-1h.99v-2.04Z"/><path class="cls-1" d="M466.44,137.25h1.25v1.39h-1.25v-1.39ZM466.44,140h1.25v7.29h-1.25v-7.29Z"/><path class="cls-1" d="M474.85,140.7c.65.63.97,1.55.97,2.77s-.29,2.15-.86,2.92-1.46,1.15-2.65,1.15c-1,0-1.79-.34-2.38-1.02-.59-.68-.88-1.59-.88-2.74,0-1.23.31-2.21.93-2.94s1.45-1.09,2.5-1.09c.94,0,1.73.31,2.38.94ZM474.09,145.56c.3-.62.45-1.3.45-2.06,0-.68-.11-1.24-.32-1.67-.34-.67-.93-1.01-1.77-1.01-.74,0-1.28.29-1.62.86-.34.57-.51,1.27-.51,2.08s.17,1.43.51,1.95c.34.52.87.78,1.61.78.81,0,1.36-.31,1.66-.93Z"/><path class="cls-1" d="M477.33,139.97h1.17v1.04c.35-.43.71-.74,1.1-.92.39-.19.82-.28,1.29-.28,1.04,0,1.74.36,2.11,1.09.2.4.3.96.3,1.7v4.7h-1.25v-4.61c0-.45-.07-.81-.2-1.08-.22-.46-.62-.68-1.19-.68-.29,0-.53.03-.72.09-.34.1-.63.3-.89.6-.21.24-.34.49-.4.75-.06.26-.09.63-.09,1.1v3.83h-1.23v-7.32Z"/><path class="cls-1" d="M415.77,154.05h4.49c.89,0,1.61.25,2.15.75.55.5.82,1.21.82,2.12,0,.78-.24,1.47-.73,2.05s-1.23.87-2.24.87h-3.14v4.25h-1.36v-10.04ZM421.04,155.43c-.3-.14-.71-.21-1.23-.21h-2.69v3.48h2.69c.61,0,1.1-.13,1.48-.39s.57-.72.57-1.37c0-.74-.27-1.24-.81-1.5Z"/><path class="cls-1" d="M424.84,156.77h1.17v1.26c.1-.25.33-.55.7-.9.37-.35.8-.53,1.29-.53.02,0,.06,0,.12,0,.05,0,.15.01.28.03v1.3c-.07-.01-.14-.02-.2-.03-.06,0-.13,0-.2,0-.62,0-1.1.2-1.43.6-.33.4-.5.86-.5,1.38v4.21h-1.23v-7.32Z"/><path class="cls-1" d="M434.78,157.5c.65.63.97,1.55.97,2.77s-.29,2.15-.86,2.92-1.46,1.15-2.65,1.15c-1,0-1.79-.34-2.38-1.02-.59-.68-.88-1.59-.88-2.74,0-1.23.31-2.21.93-2.94s1.45-1.09,2.5-1.09c.94,0,1.73.31,2.38.94ZM434.01,162.36c.3-.62.45-1.3.45-2.06,0-.68-.11-1.24-.32-1.67-.34-.67-.93-1.01-1.77-1.01-.74,0-1.28.29-1.62.86-.34.57-.51,1.27-.51,2.08s.17,1.43.51,1.95c.34.52.87.78,1.61.78.81,0,1.36-.31,1.66-.93Z"/><path class="cls-1" d="M442.09,157.16c.52.4.83,1.09.93,2.07h-1.2c-.07-.45-.24-.83-.5-1.12-.26-.3-.68-.45-1.25-.45-.78,0-1.34.38-1.68,1.15-.22.5-.33,1.11-.33,1.84s.16,1.35.46,1.85c.31.5.8.75,1.46.75.51,0,.92-.16,1.21-.47.3-.31.5-.74.62-1.28h1.2c-.14.97-.48,1.68-1.03,2.13-.55.45-1.25.67-2.1.67-.96,0-1.72-.35-2.29-1.05-.57-.7-.85-1.57-.85-2.62,0-1.29.31-2.29.94-3,.62-.72,1.42-1.07,2.39-1.07.83,0,1.5.2,2.01.6Z"/><path class="cls-1" d="M448.78,156.97c.48.24.85.56,1.11.95.24.37.41.8.49,1.29.07.34.11.88.11,1.61h-5.33c.02.75.2,1.34.52,1.79.33.45.83.68,1.51.68.64,0,1.15-.21,1.53-.64.21-.25.36-.53.45-.86h1.21c-.03.27-.14.57-.32.9-.18.33-.38.6-.6.81-.37.36-.83.61-1.38.74-.29.07-.63.11-1,.11-.91,0-1.67-.33-2.3-1s-.94-1.59-.94-2.79.32-2.13.95-2.86c.63-.73,1.46-1.1,2.49-1.1.52,0,1.02.12,1.5.37ZM449.22,159.84c-.05-.53-.17-.96-.35-1.28-.33-.59-.89-.89-1.67-.89-.56,0-1.03.2-1.41.61-.38.41-.58.93-.6,1.56h4.03Z"/><path class="cls-1" d="M452.78,161.79c.04.41.14.72.31.94.32.4.87.59,1.65.59.46,0,.87-.1,1.23-.3s.53-.5.53-.92c0-.31-.14-.55-.42-.72-.18-.1-.54-.22-1.07-.35l-.99-.25c-.63-.16-1.1-.33-1.4-.52-.54-.33-.81-.79-.81-1.38,0-.69.25-1.25.76-1.68.51-.43,1.19-.64,2.04-.64,1.12,0,1.92.32,2.42.97.31.41.46.85.45,1.33h-1.16c-.02-.28-.12-.53-.3-.75-.29-.32-.79-.48-1.5-.48-.48,0-.84.09-1.08.27-.25.18-.37.41-.37.7,0,.32.16.57.48.76.19.11.46.21.82.3l.83.2c.9.21,1.5.42,1.81.62.48.31.72.81.72,1.48s-.25,1.21-.75,1.69c-.5.47-1.26.71-2.29.71-1.1,0-1.88-.25-2.34-.74-.46-.49-.71-1.11-.74-1.83h1.18Z"/><path class="cls-1" d="M459.78,161.79c.04.41.14.72.31.94.32.4.87.59,1.65.59.46,0,.87-.1,1.23-.3s.53-.5.53-.92c0-.31-.14-.55-.42-.72-.18-.1-.54-.22-1.07-.35l-.99-.25c-.63-.16-1.1-.33-1.4-.52-.54-.33-.81-.79-.81-1.38,0-.69.25-1.25.76-1.68.51-.43,1.19-.64,2.04-.64,1.12,0,1.92.32,2.42.97.31.41.46.85.45,1.33h-1.16c-.02-.28-.12-.53-.3-.75-.29-.32-.79-.48-1.5-.48-.48,0-.84.09-1.08.27-.25.18-.37.41-.37.7,0,.32.16.57.48.76.19.11.46.21.82.3l.83.2c.9.21,1.5.42,1.81.62.48.31.72.81.72,1.48s-.25,1.21-.75,1.69c-.5.47-1.26.71-2.29.71-1.1,0-1.88-.25-2.34-.74-.46-.49-.71-1.11-.74-1.83h1.18Z"/><path class="cls-1" d="M466.04,154.05h1.25v1.39h-1.25v-1.39ZM466.04,156.8h1.25v7.29h-1.25v-7.29Z"/><path class="cls-1" d="M469.15,156.77h1.17v1.04c.35-.43.71-.74,1.1-.92.39-.19.82-.28,1.29-.28,1.04,0,1.74.36,2.11,1.09.2.4.3.96.3,1.7v4.7h-1.25v-4.61c0-.45-.07-.81-.2-1.08-.22-.46-.62-.68-1.19-.68-.29,0-.53.03-.72.09-.34.1-.63.3-.89.6-.21.24-.34.49-.4.75-.06.26-.09.63-.09,1.1v3.83h-1.23v-7.32Z"/><path class="cls-1" d="M481.01,157.06c.23.16.47.39.71.7v-.92h1.13v6.66c0,.93-.14,1.66-.41,2.2-.51.99-1.47,1.49-2.88,1.49-.79,0-1.45-.18-1.98-.53-.54-.35-.84-.91-.9-1.66h1.25c.06.33.18.58.35.76.28.27.71.41,1.31.41.94,0,1.55-.33,1.84-1,.17-.39.25-1.09.24-2.1-.25.37-.54.65-.88.83-.35.18-.8.27-1.37.27-.79,0-1.48-.28-2.07-.84-.59-.56-.89-1.49-.89-2.79,0-1.23.3-2.18.9-2.87.6-.69,1.32-1.03,2.16-1.03.57,0,1.07.14,1.5.42ZM481.16,158.38c-.37-.44-.85-.66-1.42-.66-.86,0-1.45.41-1.77,1.22-.17.43-.25,1-.25,1.7,0,.82.17,1.45.5,1.88s.78.65,1.34.65c.88,0,1.5-.4,1.86-1.2.2-.45.3-.98.3-1.58,0-.91-.19-1.58-.56-2.02Z"/></svg>