<?xml version="1.0" encoding="UTF-8"?><svg id="Layer_1" xmlns="http://www.w3.org/2000/svg" viewBox="0 0 966.33 593.02"><defs><style>.cls-1{fill:none;stroke:#78c679;stroke-linecap:round;stroke-miterlimit:10;stroke-width:16.33px;}.cls-2{fill:#bcbec0;}</style></defs><path class="cls-2" d="M320.22,203.54c10.36,6.11,14.87,16.2,13.54,29.74-1.33,12.22-7.7,22.84-19.12,32.14-11.42,9.3-26.03,14.08-44.35,14.08-11.69,0-23.9-2.39-33.73-4.78-4.78-1.06-10.09-2.92-15.67-5.58-10.89-5.05-17.26-7.7-28.15-15.4-5.58-3.72-9.83-6.64-13.01-9.03-2.92-2.13-7.17-5.58-12.75-10.09-5.31-4.51-9.3-7.97-11.69-10.36-2.39-2.12-6.37-5.84-11.95-10.89s-9.29-8.23-11.15-10.09l-6.64-5.84c-18.86,11.42-39.57,17-62.68,17-15.14.27-28.15-2.66-38.77-8.76-10.62-6.11-15.94-14.08-15.94-23.9,0-20.72,24.17-30.01,44.09-29.48,24.43,0,47.01,12.75,73.83,35.32,14.87-9.83,27.89-23.37,38.77-40.9-31.07,10.36-60.02,9.29-86.84-3.19-18.33-8.23-31.07-20.98-37.71-38.24-6.64-17.26-5.84-35.32,2.39-53.65C53.58,27.47,75.36,10.47,99.52,3.83c24.17-6.64,52.05-4.78,76.75,6.64,15.93,7.44,28.95,17.53,38.78,30.01,13.01-24.43,25.5-36.65,37.71-36.65,10.89,0,16.2,7.97,16.2,24.17-.27,19.92-9.56,41.17-27.36,63.74-17.79,22.31-39.57,39.04-65.33,50.46-12.22,21.78-26.82,38.77-43.82,50.72,3.45,2.92,9.03,7.7,16.73,14.87,7.97,7.17,14.08,12.75,18.33,16.2,4.25,3.45,10.09,8.23,17.53,14.08,7.7,6.11,14.34,10.62,19.92,13.54,5.58,3.19,12.22,6.64,19.65,10.09,14.87,7.17,30.01,9.83,45.94,9.83s28.68-3.98,38.51-11.95c10.09-7.7,15.67-17,17-27.35.8-8.77-2.39-16.47-9.83-23.11-4.51-3.45,0-7.97,3.98-5.58ZM119.18,191.86c-24.43-20.45-44.62-31.6-66.66-31.6s-36.12,8.23-35.85,21.25c0,7.44,4.78,13.54,14.08,18.06,9.3,4.51,20.18,6.9,32.14,6.9,20.45,0,39.04-4.78,56.3-14.61ZM171.23,135.29c1.33-2.12,2.92-5.58,5.05-10.09l18.59-41.7c9.29-20.71,14.87-32.4,16.2-35.32-8.77-11.95-21.78-22.31-39.04-30.81-16.2-6.64-32.14-9.83-47.81-9.56-15.67.27-30.28,4.51-43.82,13.01-13.54,8.23-23.9,19.65-30.54,33.99-7.44,16.47-7.97,32.14-1.86,47.27,6.11,15.14,17.53,26.29,33.99,33.99,27.89,13.01,57.63,12.75,89.23-.8ZM183.45,127.85l-1.06,2.13c22.04-11.42,40.63-27.09,55.77-47.01,15.14-19.92,22.57-38.24,22.84-55.51.26-10.36-2.66-15.4-9.3-15.67-9.03.26-19.65,12.22-31.6,35.85,2.13,3.45,3.98,7.44,5.58,11.95.53.53.53,1.59.27,2.92.26,1.86-2.13,3.98-3.98,3.72-1.33,0-2.39-1.06-3.19-2.92-.53-1.59-1.59-3.98-2.92-7.17-1.86,3.98-4.51,9.56-7.97,17-3.45,7.44-5.31,11.95-5.84,13.28l-18.59,41.43Z"/><path class="cls-2" d="M297.09,111.65c-8.23,20.45-18.59,29.48-34.26,29.48-5.58,0-10.09-1.59-13.54-4.51l-4.78,10.36c-8.76,19.12-2.66,31.6,15.14,31.6,7.7,0,14.87-2.39,20.98-7.44,6.11-5.05,10.62-10.36,13.54-15.67,2.12-3.98,9.03-1.59,6.64,2.92-3.19,7.44-8.76,13.81-16.47,19.39-7.7,5.58-15.93,8.23-24.7,8.23-23.64,0-34.26-14.34-22.57-42.23l14.34-30.28c8.23-18.06,18.33-27.09,30.54-27.09,14.87,0,21.25,11.15,15.14,25.23ZM281.95,93.86c-8.76,0-16.47,7.97-23.64,23.9l-5.58,11.95c2.39,2.12,5.84,3.19,9.83,3.19,11.95,0,19.65-7.44,26.03-22.57,4.51-10.89,2.39-16.47-6.64-16.47Z"/><path class="cls-2" d="M330.55,95.19l-28.95,63.47c-1.86,4.51-2.92,7.97-2.92,10.62,0,6.11,4.25,9.3,13.01,9.3,9.29,0,17.53-7.44,24.43-22.31,0-.26.27-.53.27-.8,2.12-4.25,8.5-1.59,6.64,2.92-2.39,6.38-6.64,12.48-12.22,18.59-5.58,6.11-11.95,9.03-19.12,9.03-14.08,0-20.98-5.58-20.98-16.73,0-4.51,1.06-9.03,3.45-13.81l27.62-60.29h-7.7c-2.39,0-3.45-1.06-2.92-3.45.8-2.39,2.39-3.72,5.31-3.98h8.5l13.01-28.15c2.13-5.05,9.56-2.39,7.44,3.19l-11.42,24.96h13.54c2.39,0,3.19,1.33,2.39,3.72-.8,2.39-2.39,3.72-4.78,3.72h-14.61Z"/><path class="cls-2" d="M406.5,43.14c-5.31,9.83-13.01,17.53-22.84,23.37-5.31,2.92-7.44-3.45-3.19-4.78,6.11-2.39,11.68-7.44,16.73-14.61-4.51-1.06-8.23-5.05-7.44-9.56.27-5.31,5.58-9.56,10.62-9.56,7.44,0,10.36,7.7,6.11,15.14Z"/><path class="cls-2" d="M374.09,177.78c-2.92-3.45,1.59-8.5,6.11-5.31,2.13,2.39,4.78,3.98,7.97,5.05,2.13.8,4.78,1.06,7.7,1.06,8.76,0,16.2-3.19,22.31-9.56,6.37-6.64,9.83-14.61,10.62-23.9.26-5.05-1.06-12.22-3.98-21.25-2.92-9.29-4.78-15.4-5.31-18.32l-24.96,52.85c-2.92,5.58-9.03,2.13-6.64-2.92l36.12-78.35c2.13-5.05,10.36-2.39,7.44,3.19l-1.33,2.92c-1.86,3.98-2.66,7.44-2.92,10.89-.53,6.11,1.06,14.61,4.51,25.76,3.72,11.15,5.31,19.39,5.05,24.96-.8,10.89-5.31,20.72-13.54,29.21-7.97,8.23-17.26,12.48-28.15,12.48-3.98,0-7.97-.8-11.69-2.13-3.45-1.59-6.64-3.72-9.29-6.64Z"/><path class="cls-2" d="M685.07,116.43c7.97,7.97,11.95,17.53,11.95,28.95,0,16.73-7.7,31.87-23.11,45.68-15.14,14.08-33.2,20.98-54.18,20.98-14.34,0-32.66-5.31-54.97-15.93-10.62,5.58-23.11,8.23-37.44,8.5-6.11,0-12.22-1.06-19.92-3.45-7.7-2.13-13.01-7.44-13.01-14.61,0-8.23,10.09-15.14,22.84-14.87,10.62.53,26.29,5.84,46.74,15.67,9.83-5.84,18.06-14.08,24.7-24.7,6.9-10.62,14.61-24.96,22.84-43.29l17.8-39.3c.53-1.33,1.59-3.72,3.45-7.7,1.86-3.98,2.92-6.64,3.72-7.97.8-1.59,1.86-4.25,3.45-7.7,3.45-7.17,4.51-8.77,7.7-14.34,3.19-6.11,4.78-8.23,7.97-12.48,4.25-6.11,8.5-9.83,13.28-11.95-10.89-4.78-23.37-7.17-37.18-7.44-81.53,0-119.51,55.51-119.25,94.55,0,22.04,10.63,40.63,30.81,48.33,2.92.8,3.98,2.13,3.18,3.72-.26,2.39-1.86,3.72-4.51,3.72-.27,0-1.06-.26-2.39-.53-22.57-8.5-35.32-30.01-35.32-55.51,0-22.04,10.89-45.95,30.81-66.13,20.18-20.45,55.24-35.32,95.87-35.32,24.7.27,45.15,6.64,61.08,19.39,15.93,12.75,23.9,27.62,24.17,44.62-.27,21.51-13.01,38.78-31.07,49.13ZM555.47,191.59c-16.2-7.7-28.95-11.69-38.77-12.48-9.3.26-14.61,3.45-14.61,7.44,0,6.64,8.5,10.09,25.23,10.09,10.09,0,19.39-1.59,28.15-5.05ZM633.55,115.11c0-7.17,7.7-11.15,17.26-11.42,10.36.26,19.39,2.65,27.09,7.17,17.26-8.5,29.74-24.17,29.74-43.56,0-17.79-11.42-34.79-30.81-45.68-4.78,1.86-9.56,6.11-14.34,12.48-4.51,6.37-8.23,12.48-11.15,18.06-2.92,5.58-6.91,14.08-11.95,25.5-.8,1.59-1.86,3.45-2.39,5.31l-17.79,38.24c-6.11,13.01-10.89,22.84-14.34,29.48-3.45,6.64-7.97,13.81-13.81,22.04-5.84,7.97-11.95,14.07-18.59,18.59,17.8,8.23,33.2,12.48,46.48,12.48,18.86,0,35.32-6.11,48.87-18.06,13.55-11.95,20.45-25.5,20.45-40.37,0-10.36-3.72-18.86-10.89-24.96-9.03,3.98-17.79,5.58-26.56,5.31-9.56,0-17-5.05-17.26-10.62ZM668.34,114.84c-5.85-2.12-11.69-3.19-17.26-3.19-5.05.26-7.97,1.33-8.23,3.19-.53,1.86,3.98,2.66,7.97,2.66,6.11,0,11.95-.8,17.53-2.66Z"/><path class="cls-2" d="M773.49,111.65c-8.23,20.45-18.59,29.48-34.26,29.48-5.58,0-10.09-1.59-13.54-4.51l-4.78,10.36c-8.76,19.12-2.65,31.6,15.14,31.6,7.7,0,14.87-2.39,20.98-7.44,6.11-5.05,10.63-10.36,13.55-15.67,2.12-3.98,9.03-1.59,6.64,2.92-3.19,7.44-8.76,13.81-16.47,19.39-7.7,5.58-15.93,8.23-24.7,8.23-23.64,0-34.26-14.34-22.57-42.23l14.34-30.28c8.23-18.06,18.33-27.09,30.54-27.09,14.87,0,21.25,11.15,15.14,25.23ZM758.35,93.86c-8.76,0-16.47,7.97-23.64,23.9l-5.58,11.95c2.39,2.12,5.84,3.19,9.83,3.19,11.95,0,19.66-7.44,26.03-22.57,4.52-10.89,2.39-16.47-6.64-16.47Z"/><path class="cls-2" d="M831.38,113.78c1.86-4.25,2.92-7.7,2.92-10.36,0-6.37-5.05-10.36-12.22-9.56-9.29.8-17.79,8.5-24.96,23.11l-19.65,41.43c-2.13,5.05-9.56,2.92-6.64-2.92l30.01-65.33c.8-2.39,2.39-3.19,4.78-2.39,2.39.8,3.45,2.12,2.92,4.51,4.25-3.45,8.76-5.31,13.54-5.84,12.48-.8,20.18,5.58,20.18,17,0,4.25-1.06,8.77-3.45,13.54l-19.39,41.7c-1.86,4.51-2.92,7.97-2.92,10.62,0,6.11,3.72,9.3,10.89,9.3,9.3,0,17.53-7.44,24.43-22.31,0-.26.27-.53.27-.8,2.13-4.25,8.5-1.59,6.64,2.92-2.39,6.38-6.64,12.48-12.22,18.59-5.58,6.11-11.95,9.03-19.12,9.03-12.48,0-18.86-5.58-18.86-16.73,0-4.51,1.06-9.03,3.45-13.81l19.39-41.69Z"/><path class="cls-2" d="M890.06,173.8c-6.37,8.23-13.54,12.22-21.51,12.22-12.48,0-20.18-6.11-20.18-17,0-4.25,1.06-8.76,3.45-13.54l19.65-41.96c8.23-18.06,18.59-27.09,31.6-27.09,8.77,0,14.34,3.19,17.26,9.56l30.01-65.07c2.13-5.05,9.56-2.39,7.44,3.19l-57.1,124.56c-1.86,4.51-2.92,7.97-2.92,10.62,0,6.11,3.72,9.3,10.89,9.3,9.3,0,17.53-7.44,24.43-22.31,0-.26.27-.53.27-.8,2.13-4.25,8.5-1.59,6.64,2.92-2.39,6.38-6.64,12.48-12.22,18.59-5.58,6.11-11.95,9.03-19.12,9.03-10.62,0-16.73-3.98-18.59-12.22ZM893.25,155.47l19.12-41.69c1.86-4.51,2.92-7.97,2.92-10.36,0-6.37-3.98-9.56-12.22-9.56-9.29,0-17.53,7.97-24.7,23.9l-19.12,40.9c-1.86,4.25-2.92,7.7-2.92,10.36,0,6.37,3.98,9.56,12.22,9.56,9.03,0,16.73-6.9,23.37-20.45l1.33-2.66Z"/><path class="cls-2" d="M261.13,429.16c4.25-9.29,9.03-17.26,14.61-24.17-2.92-.8-8.5-2.65-17.26-5.31-8.5-2.92-15.14-4.78-19.92-6.11-9.3,9.83-19.12,28.15-29.48,54.71-13.54,34.26-24.43,58.69-32.93,73.3-22.04,37.98-48.07,57.1-77.82,57.1-19.12,0-34.79-8.5-37.71-20.98-1.06-5.58,6.9-7.17,7.97-1.6,1.86,8.77,14.08,14.61,29.74,14.61,54.71,0,84.19-76.49,102.25-122.17.53-1.33.8-2.39,1.06-2.92,9.83-25.5,19.39-43.56,28.95-54.18-14.08-3.45-27.36-5.31-39.31-5.31-35.32,0-65.07,12.75-82.06,31.07-16.73,18.06-25.76,39.57-25.76,60.55,0,25.49,13.81,48.33,38.24,58.16,2.39,1.06,3.72,2.39,3.72,4.25,0,3.19-4.78,4.52-6.9,3.19-27.62-11.42-43.02-36.92-43.02-65.6,0-17.8,5.58-36.65,18.32-53.91,17.79-25.5,51.52-45.68,98-45.68,14.61,0,32.67,3.45,44.35,6.9,5.84,1.6,13.54,3.98,23.1,6.9,9.56,2.92,16.73,5.05,21.78,6.38,15.67-17.79,31.6-26.56,48.33-26.56,17.79,0,27.09,7.97,27.09,18.32,0,11.95-13.54,23.64-32.93,23.64-11.95-.27-25.23-2.39-40.37-6.64-4.78,5.85-9.03,12.48-12.48,20.18l-17.53,39.31c4.25-2.92,8.5-4.52,12.48-4.52,12.48,0,20.18,6.11,20.18,17,0,4.25-1.06,8.77-3.45,13.55l-19.39,41.69c-1.86,4.52-2.92,7.97-2.92,10.62,0,6.11,3.72,9.3,10.89,9.3,9.29,0,17.53-7.43,24.43-22.31,0-.27.27-.53.27-.8,2.12-4.25,8.5-1.59,6.64,2.92-2.39,6.38-6.64,12.48-12.22,18.59-5.58,6.11-11.95,9.03-19.12,9.03-12.48,0-18.86-5.58-18.86-16.73,0-4.51,1.06-9.03,3.45-13.81l19.39-41.69c1.86-4.25,2.92-7.7,2.92-10.36,0-6.37-3.98-9.56-12.22-9.56s-15.14,5.58-21.51,16.73l-31.34,69.05c-1.59,3.45-3.72,4.52-6.37,3.72-2.39-.8-3.19-2.65-1.86-5.31l56.57-124.56ZM289.01,400.48c13.01,2.92,24.43,4.78,34.53,5.31,14.87,0,24.96-7.44,24.96-15.67,0-6.11-6.64-10.89-19.12-10.89-13.28,0-26.82,7.17-40.37,21.25Z"/><path class="cls-2" d="M360.16,487.32c-8.23,20.45-18.59,29.48-34.26,29.48-5.58,0-10.09-1.6-13.54-4.52l-4.78,10.36c-8.76,19.12-2.66,31.6,15.14,31.6,7.7,0,14.87-2.39,20.98-7.43,6.11-5.05,10.62-10.36,13.54-15.67,2.12-3.98,9.03-1.59,6.64,2.92-3.19,7.44-8.76,13.81-16.47,19.39-7.7,5.58-15.93,8.23-24.7,8.23-23.64,0-34.26-14.34-22.57-42.23l14.34-30.28c8.23-18.06,18.33-27.09,30.54-27.09,14.87,0,21.25,11.15,15.14,25.23ZM345.03,469.53c-8.76,0-16.47,7.97-23.64,23.9l-5.58,11.95c2.39,2.13,5.84,3.19,9.83,3.19,11.95,0,19.65-7.44,26.03-22.58,4.51-10.89,2.39-16.46-6.64-16.46Z"/><path class="cls-2" d="M441.95,568.05c-14.08-16.46-21.25-36.38-21.25-59.75,0-20.98,7.97-44.35,22.84-65.6,20.72-31.87,58.43-57.63,101.98-57.63,17.53,0,31.34,4.25,41.43,13.01,10.36,8.77,15.41,18.59,15.41,30.01,0,10.36-3.98,19.66-11.69,27.89-7.7,8.23-17.26,12.22-28.41,12.22-20.98,0-30.01-11.42-30.01-26.29,0-5.31,1.33-9.56,3.98-13.01,3.45-4.25,9.56-.53,6.64,3.98-1.86,3.18-2.65,6.37-2.65,9.29,0,10.36,7.17,18.33,22.84,18.33,8.5,0,15.93-3.19,22.04-9.3,6.38-6.37,9.56-13.54,9.56-21.51,0-9.83-4.25-18.59-13.01-25.76-8.5-7.44-20.71-11.15-36.65-11.15-25.76,0-51.52,10.36-70.38,26.56-27.62,23.9-45.94,58.96-45.94,88.7,0,20.98,6.11,39.04,18.59,54.18,12.48,15.41,29.21,23.11,50.2,23.11,17.26,0,31.6-5.58,43.29-16.73,11.95-10.89,17.79-23.11,17.79-36.39,0-16.73-11.68-30.54-27.89-30.54-14.61,0-24.7,6.64-29.74,19.65-2.39,6.11-9.56,2.92-7.43-3.19,5.05-13.01,18.06-23.9,37.18-23.9,10.63,0,19.12,3.72,25.76,10.89,6.64,7.17,10.09,15.67,10.09,26.03,0,15.14-6.64,29.21-19.92,42.23-13.28,13.01-29.74,19.65-49.13,19.65-22.84,0-41.43-8.23-55.51-24.96Z"/><path class="cls-2" d="M594.9,534.33c-1.86,4.25-2.92,7.7-2.92,10.36,0,6.37,3.98,9.56,12.22,9.56,9.03,0,16.73-6.9,23.37-20.45l1.33-2.66,29.75-65.07c2.12-5.05,9.56-2.39,7.43,3.19l-29.74,65.07c-1.86,4.52-2.92,7.97-2.92,10.62,0,6.11,3.72,9.3,10.89,9.3,9.3,0,17.53-7.43,24.43-22.31,0-.27.27-.53.27-.8,2.13-4.25,8.5-1.59,6.64,2.92-2.39,6.38-6.64,12.48-12.22,18.59-5.58,6.11-11.95,9.03-19.12,9.03-10.62,0-16.73-3.98-18.59-12.22-6.37,8.23-13.54,12.22-21.51,12.22-12.48,0-20.18-6.11-20.18-17,0-4.25,1.06-8.76,3.45-13.55l30.01-65.07c2.13-5.05,9.56-2.39,7.43,3.19l-30.01,65.07Z"/><path class="cls-2" d="M724.23,488.38c1.86-4.25,2.92-7.7,2.92-10.36,0-6.37-3.45-9.83-9.03-9.56-4.25,0-7.44-1.33-9.56-3.98l-32.66,69.58c-2.39,5.05-9.56,3.72-6.64-2.92l37.98-82.33.8-2.13c2.13-4.52,10.36-1.6,7.43,3.45-3.45,7.17-2.39,10.89,2.66,10.89,10.62-.8,17,5.58,17,17,0,4.25-1.06,8.77-3.45,13.55l-19.92,42.76c-1.86,4.52-2.92,7.97-2.92,10.62,0,6.11,3.72,9.3,10.89,9.3,9.3,0,17.53-7.43,24.43-22.31,0-.27.26-.53.26-.8,2.13-4.25,8.5-1.59,6.64,2.92-2.39,6.38-6.64,12.48-12.22,18.59-5.58,6.11-11.95,9.03-19.12,9.03-12.48,0-18.86-5.58-18.86-16.73,0-4.51,1.06-9.03,3.45-13.81l19.92-42.76Z"/><path class="cls-2" d="M796.72,528.48c-2.92,7.7-7.7,15.41-14.87,22.57-6.9,7.17-14.61,10.63-23.11,10.63-11.42,0-18.06-6.11-18.06-17,0-4.25,1.06-8.76,3.45-13.55l30.01-65.07c2.13-5.05,9.56-2.39,7.43,3.19l-30.01,65.07c-1.86,4.25-2.92,7.7-2.92,10.36,0,6.37,3.45,9.56,10.09,9.56s12.48-2.92,17.53-8.76c5.31-6.11,9.29-11.68,11.68-17l7.97-17.79c2.39-5.58,3.98-9.56,4.78-11.42s1.86-5.31,3.19-9.83c2.92-9.3,2.13-14.61-1.06-19.65-3.19-5.05,3.19-7.97,6.38-4.78,4.25,6.64,5.31,14.88,2.92,24.43-2.39,9.3-4.25,14.08-8.5,23.64l-6.9,15.41Z"/><path class="cls-2" d="M881.17,487.32c-8.23,20.45-18.59,29.48-34.26,29.48-5.58,0-10.09-1.6-13.54-4.52l-4.78,10.36c-8.76,19.12-2.65,31.6,15.14,31.6,7.7,0,14.87-2.39,20.98-7.43s10.63-10.36,13.55-15.67c2.12-3.98,9.03-1.59,6.64,2.92-3.19,7.44-8.76,13.81-16.47,19.39-7.7,5.58-15.93,8.23-24.7,8.23-23.64,0-34.26-14.34-22.57-42.23l14.34-30.28c8.23-18.06,18.33-27.09,30.54-27.09,14.87,0,21.25,11.15,15.14,25.23ZM866.03,469.53c-8.76,0-16.47,7.97-23.64,23.9l-5.58,11.95c2.39,2.13,5.84,3.19,9.83,3.19,11.95,0,19.66-7.44,26.03-22.58,4.52-10.89,2.39-16.46-6.64-16.46Z"/><path class="cls-1" d="M8.16,377.63c314.22-96.14,635.78-96.98,950,0"/></svg>