<?xml version="1.0" encoding="UTF-8"?>
<svg id="Capa_1" xmlns="http://www.w3.org/2000/svg" version="1.1" viewBox="0 0 512 512">
  <!-- Generator: Adobe Illustrator 29.0.0, SVG Export Plug-In . SVG Version: 2.1.0 Build 186)  -->
  <defs>
    <style>
      .st0 {
        fill: #fff;
      }
    </style>
  </defs>
  <g id="Page-1">
    <g id="_x30_45---Charge-Phone">
      <path id="Shape" class="st0" d="M68.4,244.5c.7,5.9,4,11.1,9,14.4l52.7,33.5c1.1.9,1.5,2.4,1.1,3.7l-23.8,97c-2.4,9.1,1.7,18.6,10,23,2.5,1.3,5.3,2,8.2,2,5.3,0,10.3-2.4,13.7-6.5l111.8-128.9c3.9-4.6,5.7-10.6,4.8-16.6-.8-5.7-4-10.9-8.8-14l-52.7-33.7c-1.1-1-1.5-2.5-1-3.9l28.7-94.5c3-9.1-.8-19-9-23.8-7.3-4.2-16.6-2.7-22.2,3.7l-117.2,127.8c-4.1,4.5-6,10.7-5.1,16.7h0ZM86.2,239.3l117.1-127.8c.4-.4.6-.5.8-.5.1,0,.3,0,.4.2,1.3.9,1.8,2.6,1.1,4l-28.7,94.4c-2.8,8.7.6,18.2,8.2,23.3l52.7,33.7c.7.5,1.1,1.3,1.2,2.1.2,1.1,0,2.1-.8,3l-111.8,128.9c-.6.8-.9.6-1.2.4-1.3-.8-1.8-2.4-1.2-3.8l23.8-97.1c2.1-8.5-1.3-17.3-8.5-22.2l-52.7-33.4c-.7-.5-1.1-1.3-1.2-2.2-.2-1.1.2-2.2.9-3h0Z"/>
      <path id="Path" class="st0" d="M51.2,93.9c2.3,0,4.4-.9,6-2.5l8.5-8.5c3.2-3.3,3.2-8.7-.1-12-3.3-3.3-8.6-3.3-12-.1l-8.5,8.5c-2.4,2.4-3.2,6.1-1.8,9.3,1.3,3.2,4.4,5.3,7.9,5.3Z"/>
      <path id="Path1" data-name="Path" class="st0" d="M51.2,136.5c2.3,0,4.4-.9,6-2.5l51.2-51.2c3.2-3.3,3.2-8.7-.1-12-3.3-3.3-8.6-3.3-12-.1l-51.2,51.2c-2.4,2.4-3.2,6.1-1.8,9.3,1.3,3.2,4.4,5.3,7.9,5.3h0Z"/>
      <path id="Shape1" data-name="Shape" class="st0" d="M486.4,93.9V25.6C486.4,11.5,474.9,0,460.8,0s-25.6,11.5-25.6,25.6v68.3h-17.1V25.6C418.1,11.5,406.7,0,392.5,0s-25.6,11.5-25.6,25.6v68.3c-9.4,0-17.1,7.6-17.1,17.1v59.7c0,20.3,14.3,37.7,34.1,41.8v17.9c0,9.4,7.6,17.1,17.1,17.1h17.1v226.1c0,11.8-9.6,21.3-21.3,21.3s-21.3-9.6-21.3-21.3v-59.7c0-21.2-17.2-38.4-38.4-38.4h-21.3V34.1C315.7,15.3,300.5,0,281.6,0H42.7C23.8,0,8.5,15.3,8.5,34.1v443.7c0,18.9,15.3,34.1,34.1,34.1h238.9c18.9,0,34.1-15.3,34.1-34.1v-85.3h21.3c11.8,0,21.3,9.6,21.3,21.3v59.7c0,21.2,17.2,38.4,38.4,38.4s38.4-17.2,38.4-38.4v-226.1h17.1c9.4,0,17.1-7.6,17.1-17.1v-17.9c19.9-4.1,34.1-21.5,34.1-41.8v-59.7c0-9.4-7.6-17.1-17.1-17.1h0ZM227.8,17.1l-10.9,11.7c-3.2,3.4-7.7,5.4-12.5,5.4h-84.5c-4.7,0-9.2-2-12.4-5.4l-10.9-11.7h131.3ZM25.6,34.1c0-9.4,7.6-17.1,17.1-17.1h30.4l21.9,23.3c6.5,6.9,15.5,10.8,24.9,10.8h84.5c9.4,0,18.4-3.9,24.9-10.8l21.9-23.3h30.4c9.4,0,17.1,7.6,17.1,17.1v401.1c0,9.4-7.6,17.1-17.1,17.1H42.7c-9.4,0-17.1-7.6-17.1-17.1V34.1ZM281.6,494.9H42.7c-9.4,0-17.1-7.6-17.1-17.1v-13.3c5.2,3.1,11.1,4.7,17.1,4.7h238.9c6,0,11.9-1.7,17.1-4.7v13.3c0,9.4-7.6,17.1-17.1,17.1h0ZM452.3,25.6c0-4.7,3.8-8.5,8.5-8.5s8.5,3.8,8.5,8.5v68.3h-17.1V25.6h0ZM384,25.6c0-4.7,3.8-8.5,8.5-8.5s8.5,3.8,8.5,8.5v68.3h-17.1V25.6ZM401.1,230.4v-17.1h51.2v17.1h-51.2ZM486.4,170.7c0,14.1-11.5,25.6-25.6,25.6h-68.3c-14.1,0-25.6-11.5-25.6-25.6v-59.7h119.5v59.7Z"/>
    </g>
  </g>
</svg>